<svg width="488" height="432" viewBox="0 0 488 432" fill="none" xmlns="http://www.w3.org/2000/svg">
    <path
        d="M127.947 1.99332C113.218 7.61311 103.546 20.2277 99.7752 38.6392C97.9315 47.936 98.3898 68.1027 100.786 79.1496C103.364 91.1183 109.254 107.233 115.609 119.847C121.411 131.446 131.447 147.837 135.681 152.712C137.52 154.926 137.52 154.926 135.77 154.28C132.181 152.988 100.968 152.53 89.7388 153.634C42.4159 158.238 8.53044 178.124 1.25961 205.472C-1.96435 217.806 1.07211 231.618 9.54607 243.035C17.0929 253.071 39.744 273.696 52.4471 281.889C64.3273 289.53 66.6294 290.91 68.0096 290.91C68.744 290.91 70.3117 291.738 71.4159 292.847C72.52 293.858 75.1919 294.962 77.2179 295.238C79.6086 295.608 81.3586 296.436 82.0044 297.446C82.7388 298.832 83.9367 299.196 88.3586 299.196C92.869 299.196 93.6971 299.472 93.2336 300.582C92.9575 301.41 93.4211 302.603 94.4315 303.249C95.9992 304.446 95.9992 304.629 93.9732 307.025C92.5929 308.775 91.9471 310.889 92.0409 313.379C92.0409 315.493 91.6711 320.837 91.2127 325.436C89.645 341.181 92.1294 366.592 96.9211 384.821C102.442 405.816 106.312 413.733 114.687 421.561C122.609 429.019 128.129 431.045 141.296 431.598C153.541 432.056 159.801 430.676 171.681 424.874C197.181 412.446 222.041 384.269 239.353 348.181L243.4 339.618L247.64 348.181C253.53 359.967 257.119 366.504 262.921 375.249C281.52 403.514 306.838 424.504 329.306 430.306C337.775 432.514 352.14 432.238 358.765 429.848C372.119 424.874 380.405 415.483 385.65 399.556C389.426 388.139 392.463 375.894 394.124 365.488C395.687 355.545 396.609 333.722 395.78 325.436C395.317 320.837 394.952 315.493 394.952 313.379C395.041 310.889 394.4 308.775 393.015 307.025C390.994 304.629 390.994 304.446 392.556 303.249C393.567 302.603 394.03 301.41 393.754 300.582C393.291 299.472 394.124 299.196 398.635 299.196C403.051 299.196 404.249 298.832 404.989 297.446C405.629 296.436 407.379 295.608 409.775 295.238C411.801 294.962 414.468 293.858 415.572 292.847C416.681 291.738 418.244 290.91 418.978 290.91C422.114 290.91 445.775 274.613 455.166 266.051C479.103 244.139 487.02 231.712 487.02 215.874C487.02 184.295 451.208 159.066 398.723 153.821C387.952 152.712 367.421 152.624 357.478 153.634C353.796 154.004 350.754 154.097 350.754 154.004C350.754 153.821 352.598 151.15 354.806 147.926C369.265 127.301 379.853 104.561 385.374 82.6496C388.598 69.7589 389.426 49.7798 387.218 38.5454C383.9 21.7902 373.499 7.51936 361.161 2.63915C352.416 -0.7671 338.879 -0.86085 325.254 2.26936C313.098 5.12352 306.931 7.06103 295.515 11.4777C286.03 15.2537 268.26 24.186 265.681 26.5767C264.577 27.4985 262.827 28.6027 261.723 28.8787C260.619 29.2485 258.687 30.7225 257.395 32.285C256.109 33.7589 254.452 34.9569 253.624 34.9569C251.504 34.9569 247.822 39.1912 247.088 42.5975C246.718 44.2537 246.254 44.9933 246.072 44.3475C245.796 43.7954 244.692 43.2433 243.494 43.2433C242.296 43.2433 241.192 43.7954 240.916 44.3475C240.734 44.9933 240.27 44.2537 239.905 42.5975C239.166 39.1912 235.484 34.9569 233.369 34.9569C232.541 34.9569 230.879 33.7589 229.593 32.285C228.301 30.7225 226.369 29.2485 225.265 28.8787C224.161 28.6027 222.411 27.4985 221.4 26.5767C219.187 24.5506 201.051 15.0714 194.697 12.5819C171.405 3.56103 156.306 -0.0327247 142.4 0.0610247C135.218 0.0610247 131.812 0.524567 127.947 1.99332ZM141.76 3.46727C135.129 5.95686 132.275 7.7954 127.853 12.5819C113.77 27.5923 111.004 57.3319 120.583 89.5558C126.749 110.363 135.494 127.394 153.911 154.738L155.567 157.04L147.556 155.842C143.14 155.108 139.458 154.462 139.364 154.374C139.27 154.28 136.14 149.582 132.364 144.061C102.442 99.7746 92.4992 54.0142 106.676 25.2902C113.952 10.5558 126.567 1.81102 140.374 1.90477L145.9 1.99332L141.76 3.46727ZM360.885 5.31102C373.681 11.3839 381.51 22.436 385.286 39.9308C387.218 48.6756 386.754 67.0871 384.364 78.2277C380.312 96.4621 370.458 119.295 358.4 138.259C348.27 154.186 347.9 154.556 339.062 155.936C333.905 156.676 331.697 156.764 332.067 156.124C332.437 155.566 334.827 151.978 337.405 148.202C352.598 126.196 363.004 103.827 368.801 80.6235C371.931 68.1027 372.853 48.1235 370.645 36.8892C367.515 20.0402 358.489 8.16519 345.14 3.28498L341.088 1.71727L347.994 2.08707C353.426 2.36311 356.28 3.10269 360.885 5.31102ZM159.249 4.01936C159.249 4.2954 157.135 5.12352 154.645 5.95686C144.426 9.36311 135.958 20.686 132.916 34.9569C130.895 44.6235 131.536 66.2589 134.301 78.2277C139.364 100.233 149.859 123.53 165.234 146.821C172.786 158.144 174.348 161.186 172.786 160.722C171.681 160.446 168.181 159.712 165.051 159.066C158.791 157.962 159.525 158.696 149.765 144.426C135.588 123.712 123.713 97.1964 119.202 76.3892C116.9 65.8006 116.437 46.0975 118.187 37.811C121.687 21.4204 131.536 8.89957 143.874 4.94123C147.468 3.83706 159.249 3.19123 159.249 4.01936ZM347.26 6.69123C379.39 22.436 377.364 79.9777 342.655 135.957C339.155 141.483 334.369 148.754 331.885 152.071C327.556 157.78 327.187 158.056 321.848 159.16C318.718 159.806 315.218 160.54 314.02 160.816C311.994 161.368 312.181 160.91 316.046 155.478C335.655 128.41 349.286 98.1183 353.978 71.4152C355.728 61.1964 355.728 42.9673 353.978 34.7746C351.03 20.7798 342.468 9.26936 332.343 5.95686C329.859 5.12352 327.739 4.20686 327.739 3.93082C327.739 3.65478 330.963 3.56103 335.015 3.83707C340.353 4.11311 343.577 4.84748 347.26 6.69123ZM167.536 7.33707C169.103 8.25373 169.192 8.16519 163.76 11.2954C147.192 20.7798 143.046 52.5402 153.541 88.8162C159.989 111.009 170.301 131.722 187.426 156.676C191.197 162.196 193.869 166.618 193.499 166.618C193.135 166.618 189.728 165.603 185.952 164.499C179.228 162.384 178.864 162.108 174.26 155.936C156.765 132.733 141.202 100.233 135.77 75.4673C133.379 64.6964 132.916 44.9933 134.76 36.5194C138.166 21.4204 146.546 10.5558 157.411 7.24332C160.723 6.32144 165.879 6.32144 167.536 7.33707ZM334.093 9.17561C342.749 13.5037 349.286 23.4464 352.228 36.5194C354.442 46.4673 353.609 66.0767 350.39 78.6912C343.76 105.389 328.109 136.696 310.338 159.16C308.036 162.014 306.379 162.936 299.749 164.962L291.833 167.264L295.056 163.025C309.692 143.874 324.702 115.978 331.333 95.7225C344.312 55.8579 340.999 21.4204 323.228 11.2954C317.796 8.16519 317.89 8.34748 319.452 7.24332C321.478 5.86311 329.765 6.96727 334.093 9.17561ZM175.916 11.5714L178.676 12.9517L174.072 18.0142C168.734 23.8162 166.338 29.7069 164.681 40.4829C160.723 68.0089 172.14 107.691 194.973 145.624C199.119 152.347 204.64 160.999 207.494 164.775C210.26 168.551 212.192 171.957 211.916 172.327C211.546 172.691 208.598 172.051 205.286 170.853C199.853 168.92 198.843 168.092 194.051 162.014C177.39 140.467 161.275 109.165 154.833 85.41C148.02 60.7381 148.109 38.5454 155.109 24.8267C158.239 18.66 162.197 14.3319 166.89 12.0298C171.494 9.72769 172.322 9.63915 175.916 11.5714ZM320.004 12.0298C338.697 21.0558 342.468 54.936 329.306 94.8006C322.583 115.056 305.551 146.269 291.556 163.853C288.056 168.181 286.676 169.196 281.338 171.129C277.931 172.327 274.89 173.061 274.614 172.785C274.338 172.509 276.64 168.733 279.77 164.405C298.463 138.077 311.994 110.269 318.442 84.8579C326.359 54.1079 323.78 27.6808 312.088 17.0923C310.062 15.2537 308.405 13.5975 308.405 13.3214C308.405 12.6756 313.374 10.1912 314.76 10.0975C315.494 10.0975 317.89 10.9256 320.004 12.0298ZM185.952 18.2017L189.083 20.8683L187.056 23.3579C178.588 34.2225 177.754 59.8162 185.03 88.1756C189.728 106.769 201.973 134.759 213.02 152.071L218.083 160.17L215.968 164.868L213.754 169.561L209.796 164.129C194.515 143.509 178.864 112.847 172.234 90.3839C167.723 75.0975 166.249 66.0767 166.249 52.4517C166.155 35.5089 169.01 26.0246 176.374 18.936C180.52 14.9777 181.9 14.8839 185.952 18.2017ZM310.614 19.0298C318.166 26.5767 320.833 35.5089 320.744 52.91C320.556 75.4673 314.848 95.9048 300.577 124.722C293.213 139.733 281.796 158.608 275.26 166.618C273.416 168.92 273.416 168.92 272.223 167.077C268.723 161.368 268.812 160.91 273.051 153.91C288.056 129.238 299.379 101.889 304.26 78.6912C308.958 55.8579 307.025 31.7329 299.655 23.1704L297.541 20.7798L300.947 18.2017C302.786 16.8162 304.905 15.6235 305.734 15.6235C306.562 15.6235 308.775 17.186 310.614 19.0298ZM197.275 27.6808L199.853 29.9829L198.291 34.1287C196.265 39.561 195.437 61.6548 196.999 72.061C199.76 91.2121 207.864 115.884 218.083 136.509L223.609 147.467L221.765 152.254C220.661 154.832 219.739 157.134 219.556 157.316C218.359 158.42 202.614 129.603 196.541 115.056C180.796 77.8631 177.572 42.0454 188.437 25.5662C191.109 21.6079 190.093 21.3319 197.275 27.6808ZM300.213 28.6964C303.431 34.9569 304.812 42.3214 304.812 53.3683C304.812 72.9829 299.843 93.1444 288.885 118.556C283.176 131.816 269.275 157.41 267.895 157.41C267.525 157.41 266.421 155.202 265.317 152.53L263.291 147.65L265.958 142.681C276.822 122.608 287.135 92.1339 290.083 72.061C291.556 61.6548 290.728 39.4673 288.702 34.1287L287.228 29.9829L291.556 26.0246C296.525 21.6079 296.525 21.6079 300.213 28.6964ZM209.984 30.0767C211.176 31.5506 211.088 31.6444 209.708 30.4464C208.14 29.2485 207.681 28.5142 208.416 28.5142C208.598 28.5142 209.338 29.2485 209.984 30.0767ZM213.666 30.0767C214.859 31.5506 214.77 31.6444 213.39 30.4464C211.822 29.2485 211.364 28.5142 212.098 28.5142C212.28 28.5142 213.02 29.2485 213.666 30.0767ZM275.26 28.8787C275.26 29.0662 274.52 29.8006 273.692 30.4464C272.223 31.6444 272.129 31.5506 273.327 30.0767C274.52 28.6027 275.26 28.1444 275.26 28.8787ZM224.53 34.7746C226.093 37.2589 227.385 39.6496 227.385 40.0194C227.385 40.4829 226.187 39.0089 224.806 36.7069C220.937 30.6287 220.754 30.3527 221.213 30.3527C221.489 30.3527 222.963 32.3787 224.53 34.7746ZM264.119 33.7589C260.895 39.1912 259.609 40.9412 259.609 40.1131C259.609 39.0975 265.129 30.3527 265.775 30.3527C265.958 30.3527 265.223 31.9204 264.119 33.7589ZM208.968 40.1131C211.546 42.9673 211.546 43.1496 211.088 52.0819C210.072 71.8787 214.952 94.3423 227.385 127.488L229.411 133.009L227.197 138.999L224.895 144.983L220.567 136.327C206.208 107.879 197.921 78.1392 197.921 55.2121C197.921 45.7277 199.395 35.9673 201.234 32.9308C201.603 32.3787 202.89 33.2069 204.088 34.5871C205.286 36.061 207.494 38.5454 208.968 40.1131ZM220.937 35.0506C222.317 37.6287 221.4 37.1652 219.556 34.4048C218.728 33.0246 218.452 32.285 219.004 32.561C219.556 32.9308 220.478 34.035 220.937 35.0506ZM265.593 37.3527C261.817 43.5194 260.53 44.9933 262.827 40.4829C264.577 37.0766 267.801 32.1964 268.353 32.1964C268.536 32.1964 267.249 34.4985 265.593 37.3527ZM287.598 39.0975C289.713 46.8319 289.53 63.5923 287.228 76.0194C283.916 94.3423 276.088 117.269 266.421 136.327L262.093 144.983L259.885 138.999C258.687 135.775 257.859 132.457 258.135 131.629C258.317 130.894 260.619 124.54 263.197 117.545C272.223 93.2381 276.822 69.6652 275.905 52.1756C275.442 43.3371 275.442 43.061 277.931 40.2069C279.312 38.5454 281.426 36.1548 282.624 34.6808C283.822 33.3006 285.109 32.4725 285.478 32.8371C285.937 33.3006 286.859 36.061 287.598 39.0975ZM228.765 34.9569C229.687 35.9673 230.051 36.7954 229.593 36.7954C229.129 36.7954 228.213 35.9673 227.567 34.9569C226.921 33.9412 226.556 33.1131 226.739 33.1131C226.921 33.1131 227.843 33.9412 228.765 34.9569ZM259.421 34.9569C258.78 35.8787 258.135 36.5194 257.859 36.3371C257.489 35.9673 259.515 33.1131 260.161 33.1131C260.343 33.1131 260.067 33.9412 259.421 34.9569ZM223.702 39.561C224.254 40.5714 224.437 41.3996 224.254 41.3996C223.978 41.3996 223.333 40.5714 222.78 39.561C222.228 38.5454 222.041 37.7173 222.228 37.7173C222.504 37.7173 223.145 38.5454 223.702 39.561ZM238.338 45.1756C239.629 49.0454 239.905 51.3475 239.353 52.7277C238.614 54.66 238.525 54.66 238.431 52.91C238.431 51.8996 237.327 48.1235 236.129 44.6235C233.458 37.0767 233.458 37.1652 235.119 38.5454C235.853 39.1912 237.327 42.1392 238.338 45.1756ZM250.859 44.9933C249.572 48.6756 248.556 52.3579 248.468 53.186C248.468 54.3839 248.28 54.3839 247.728 52.91C246.9 50.8839 248.833 43.1496 251.046 39.7433C253.254 36.1548 253.254 37.9048 250.859 44.9933ZM233.181 43.1496C234.931 47.3839 237.51 57.2381 237.416 58.9881C237.416 59.7225 236.588 57.7902 235.671 54.7537C234.749 51.7121 233.181 47.0194 232.077 44.3475C231.067 41.7694 230.515 39.561 230.973 39.561C231.431 39.561 232.447 41.1235 233.181 43.1496ZM254.822 44.3475C253.806 47.0194 252.15 51.7121 251.322 54.7537C249.202 61.5662 248.926 59.8162 250.952 52.2642C252.702 45.2694 255.004 39.561 255.926 39.561C256.291 39.561 255.833 41.7694 254.822 44.3475ZM231.984 50.5142C231.895 51.7121 229.317 46.3735 229.317 45.0819C229.317 44.3475 229.869 45.0819 230.603 46.8319C231.343 48.4933 231.984 50.1496 231.984 50.5142ZM256.385 49.2277C255.463 51.5298 254.541 53.2798 254.359 53.0923C254.176 52.91 254.822 50.7902 255.65 48.4933C256.478 46.1912 257.395 44.4412 257.583 44.6235C257.765 44.8058 257.213 46.8319 256.385 49.2277ZM244.14 56.41L243.588 63.9569L242.848 57.0558C242.484 53.2798 242.39 48.8579 242.76 47.3839C243.864 41.9516 244.874 48.3058 244.14 56.41ZM273.968 60.7381C273.051 78.2277 267.984 99.3162 259.333 121.962L256.478 129.327L253.9 121.04L251.411 112.754L253.624 105.389C256.661 95.4464 259.333 82.3735 260.53 71.4152C261.541 62.3944 261.635 62.3006 267.249 54.2017C272.405 46.9256 273.051 46.3735 273.786 48.1235C274.155 49.2277 274.244 54.936 273.968 60.7381ZM222.593 58.3423C224.895 62.1183 225.635 64.785 226.463 71.785C227.749 82.6496 230.327 95.1704 233.275 105.301L235.484 113.03L232.999 121.134L230.421 129.327L227.473 121.686C218.359 97.9308 212.65 72.6131 212.65 55.5819C212.65 46.7433 213.296 45.9152 216.885 50.1496C218.452 52.0819 221.124 55.7642 222.593 58.3423ZM238.155 63.6808C237.879 64.3267 237.692 63.8683 237.692 62.5767C237.692 61.2902 237.879 60.8267 238.155 61.3787C238.338 62.0246 238.338 63.1287 238.155 63.6808ZM249.202 63.6808C248.926 64.3267 248.744 63.8683 248.744 62.5767C248.744 61.2902 248.926 60.8267 249.202 61.3787C249.39 62.0246 249.39 63.1287 249.202 63.6808ZM237.51 86.4256C238.525 89.6444 239.353 94.6183 239.26 97.4725C239.166 102.722 237.327 109.624 236.405 108.061C234.655 105.301 228.301 75.0089 228.301 69.9412C228.301 66.6287 235.119 78.7798 237.51 86.4256ZM257.306 79.8892C255.65 89.8319 251.504 106.769 250.4 107.967C249.478 109.071 247.64 101.337 247.64 96.1808C247.64 90.936 250.4 82.4673 254.822 74.2694C258.869 66.7225 259.421 67.8267 257.306 79.8892ZM235.395 133.655C235.119 134.394 234.838 134.118 234.838 133.103C234.749 132.092 235.025 131.54 235.301 131.905C235.577 132.181 235.671 133.009 235.395 133.655ZM243.681 146.545C243.494 148.754 243.312 147.004 243.312 142.681C243.312 138.353 243.494 136.603 243.681 138.717C243.864 140.931 243.864 144.426 243.681 146.545ZM230.791 139.181C230.515 139.915 230.239 139.639 230.239 138.629C230.145 137.613 230.421 137.061 230.697 137.431C230.973 137.707 231.067 138.535 230.791 139.181ZM256.567 139.181C256.291 139.915 256.015 139.639 256.015 138.629C255.926 137.613 256.202 137.061 256.478 137.431C256.754 137.707 256.843 138.535 256.567 139.181ZM237.234 141.019C236.958 141.759 236.681 141.483 236.681 140.467C236.588 139.457 236.864 138.905 237.14 139.275C237.416 139.551 237.51 140.379 237.234 141.019ZM250.124 141.019C249.848 141.759 249.572 141.483 249.572 140.467C249.478 139.457 249.754 138.905 250.03 139.275C250.306 139.551 250.4 140.379 250.124 141.019ZM239.994 147.467C239.718 148.202 239.442 147.926 239.442 146.915C239.353 145.9 239.629 145.347 239.905 145.717C240.181 145.993 240.27 146.821 239.994 147.467ZM224.619 155.66C223.056 163.212 222.869 163.67 221.676 161.738C221.03 160.446 221.306 158.79 222.963 155.108C224.067 152.436 225.171 150.321 225.359 150.415C225.447 150.597 225.171 152.9 224.619 155.66ZM265.681 160.816C264.765 163.212 263.473 161.92 262.921 158.056C262.551 155.936 262.093 153.176 261.817 151.884C261.635 150.597 262.463 151.884 263.749 154.556C265.041 157.316 265.869 160.17 265.681 160.816ZM135.77 156.124C137.796 156.582 139.822 158.42 143.416 163.025L148.296 169.472L140.65 168.733C127.765 167.54 99.8638 167.999 88.3586 169.655C46.9263 175.639 17.2804 193.504 9.91065 216.702C8.53045 220.936 8.16065 224.16 8.4419 229.868C8.80649 236.681 8.71794 237.233 7.52003 235.488C5.21794 232.17 2.73357 224.712 2.17628 219.191C0.155444 200.316 15.7127 179.691 40.6659 168.092C53.1867 162.29 71.5982 157.504 88.3586 155.66C96.1815 154.738 130.525 155.108 135.77 156.124ZM237.51 160.358C237.416 164.775 237.234 165.79 236.499 164.499C235.671 163.118 236.223 154.65 237.14 154.65C237.327 154.65 237.51 157.228 237.51 160.358ZM250.583 164.222C249.848 165.696 249.572 164.868 249.666 160.17V154.186L250.583 158.238C251.135 160.91 251.135 162.936 250.583 164.222ZM407.379 156.764C435.551 161.368 456.27 170.577 470.447 184.941C484.536 199.025 488.312 214.4 481.864 230.514C480.577 233.827 479.197 236.775 478.827 237.051C478.458 237.233 478.364 234.014 478.551 229.868C479.379 213.665 470.723 199.67 452.77 187.884C430.119 173.061 388.692 165.051 351.312 168.368C344.77 168.92 339.338 169.285 339.155 169.103C338.973 168.92 346.984 158.238 348.458 156.676C348.546 156.488 352.14 156.03 356.374 155.566C367.145 154.462 397.437 155.202 407.379 156.764ZM228.301 159.894C227.385 164.499 226.463 166.618 225.359 166.618C224.53 166.618 224.713 165.603 226.645 159.066C227.937 154.65 229.223 155.384 228.301 159.894ZM262.275 165.42C262.369 166.066 261.999 166.618 261.541 166.618C260.067 166.618 257.306 157.316 258.411 156.124C259.056 155.478 262.187 162.936 262.275 165.42ZM151.702 158.42C157.775 159.53 157.869 159.53 162.655 165.603C165.234 168.92 167.26 171.775 167.077 171.957C166.984 172.139 163.577 171.775 159.525 171.129L152.343 170.025L147.556 164.222C144.89 161.092 142.676 158.238 142.676 157.962C142.676 157.134 144.796 157.316 151.702 158.42ZM241.286 159.894C240.546 161.275 240.364 161.275 240.27 160.082C240.27 158.514 241.192 157.134 241.931 157.78C242.114 158.056 241.838 158.978 241.286 159.894ZM246.718 159.988C246.718 161.368 246.536 161.368 245.796 160.17C244.598 158.332 244.598 157.134 245.796 157.868C246.348 158.144 246.718 159.16 246.718 159.988ZM341.364 162.108C339.249 164.686 336.76 167.54 336.025 168.457C335.103 169.472 332.161 170.483 327.463 171.222C323.504 171.775 320.098 172.139 319.911 171.957C319.728 171.775 321.754 168.92 324.426 165.696C328.754 160.17 329.583 159.618 334.187 158.608C336.947 158.056 340.629 157.504 342.286 157.504L345.416 157.41L341.364 162.108ZM170.484 162.472C176.744 163.853 177.848 164.405 180.056 167.353C181.442 169.285 183.833 172.139 185.306 173.707C186.874 175.363 187.791 176.743 187.239 176.743C185.03 176.655 171.864 173.155 171.218 172.509C167.26 168.181 160.999 159.988 162.103 160.358C162.843 160.634 166.614 161.551 170.484 162.472ZM323.598 163.118C315.494 172.879 315.036 173.155 307.39 174.993C303.343 175.915 299.749 176.743 299.567 176.743C299.291 176.743 301.405 173.983 304.353 170.483C309.51 164.499 309.786 164.222 317.056 162.29C321.202 161.275 324.885 160.264 325.254 160.264C325.713 160.17 324.978 161.551 323.598 163.118ZM231.895 168.92C231.249 171.681 230.421 173.707 229.869 173.337C229.041 172.879 229.593 165.327 230.791 162.384C231.249 160.999 231.431 160.999 232.171 162.384C232.723 163.301 232.629 165.79 231.895 168.92ZM257.395 168.181C258.228 174.535 256.478 175.181 255.098 169.009C253.989 164.04 254.541 159.618 256.015 162.196C256.385 162.936 257.03 165.603 257.395 168.181ZM220.848 164.592C221.489 165.79 221.213 167.353 219.926 170.301C218.27 173.889 217.994 174.165 216.702 172.879C215.416 171.681 215.504 171.035 217.348 167.264C218.546 164.868 219.556 162.936 219.739 162.936C219.833 162.936 220.385 163.67 220.848 164.592ZM270.286 173.249L268.905 175.181L267.895 172.785C267.431 171.405 266.515 169.196 266.051 167.905C265.317 166.155 265.405 165.144 266.239 164.129C267.155 163.025 267.708 163.488 269.458 166.983C271.484 170.853 271.484 171.499 270.286 173.249ZM242.114 168.644L242.02 173.525L240.64 170.853C239.442 168.644 239.353 167.816 240.364 166.066C241.01 164.868 241.655 163.853 241.838 163.853C242.02 163.853 242.114 166.066 242.114 168.644ZM246.442 170.946C244.968 172.415 244.874 172.233 244.968 167.999V163.394L246.536 166.431C247.916 169.196 247.916 169.561 246.442 170.946ZM190.28 167.999C197.093 170.118 197.827 170.67 202.249 176.009C204.827 179.233 206.853 181.9 206.666 182.087C206.572 182.269 203.26 181.441 199.301 180.243C192.671 178.311 191.843 177.759 187.239 172.509C182.635 167.353 181.624 165.696 182.635 165.696C182.911 165.696 186.317 166.707 190.28 167.999ZM304.723 166.249C304.723 166.525 302.421 169.379 299.655 172.509C294.317 178.493 294.963 178.217 281.338 182.087C280.046 182.452 281.062 180.702 284.556 176.467C289.161 170.759 289.989 170.118 296.437 168.092C303.984 165.603 304.723 165.42 304.723 166.249ZM251.963 169.561C251.687 170.207 251.504 169.749 251.504 168.457C251.504 167.17 251.687 166.707 251.963 167.264C252.15 167.905 252.15 169.009 251.963 169.561ZM235.395 169.561C235.119 170.301 234.838 170.025 234.838 169.009C234.749 167.999 235.025 167.446 235.301 167.816C235.577 168.092 235.671 168.92 235.395 169.561ZM136.603 170.394L149.583 171.311L162.473 184.202L155.109 183.467C141.666 182.087 104.562 182.728 94.3429 184.478C65.3377 189.358 43.52 198.749 29.8898 212.191C19.8586 221.952 15.4367 233.186 17.369 243.493C17.8325 246.071 18.1086 248.285 17.9211 248.374C17.1867 249.113 11.9367 238.618 10.9263 234.472C6.6919 216.889 20.2232 196.91 44.6242 184.754C69.02 172.603 100.879 167.629 136.603 170.394ZM386.666 170.394C407.749 172.327 427.822 177.483 442.369 184.847C470.265 198.842 482.879 221.217 473.853 240.551C472.567 243.217 470.911 246.165 470.077 247.181C468.515 249.019 468.515 248.926 469.161 246.717C470.447 242.301 469.801 232.54 467.78 227.384C462.348 213.019 443.197 198.472 420.27 191.108C398.359 184.108 379.577 181.811 351.676 182.639C340.812 183.004 330.223 183.467 328.197 183.743L324.515 184.389L330.041 178.493C333.077 175.269 335.931 172.327 336.484 171.957C339.614 169.931 371.197 168.92 386.666 170.394ZM164.317 173.983C170.666 174.993 170.853 175.181 176.468 181.254L182.176 187.519L174.166 186.045C169.744 185.217 165.697 184.295 165.145 183.926C164.499 183.467 161.827 180.613 159.161 177.571C155.843 173.707 154.833 172.051 156.03 172.415C157.041 172.691 160.817 173.431 164.317 173.983ZM206.853 173.707C208.786 174.629 210.536 175.363 210.718 175.545C210.812 175.639 210.442 176.561 209.708 177.571L208.322 179.509L206.572 177.389C203.629 174.077 202.249 172.139 202.801 172.139C203.166 172.139 204.916 172.879 206.853 173.707ZM266.879 176.285C266.879 176.743 266.515 176.561 266.051 175.827C265.593 175.087 265.223 173.801 265.223 173.061C265.223 171.587 266.791 174.535 266.879 176.285ZM284.468 172.785C284.468 173.249 283.176 174.905 281.614 176.561C278.942 179.509 278.76 179.597 277.562 177.941C276.822 177.019 276.181 176.009 276.181 175.639C276.181 175.181 280.046 173.525 284.28 172.233C284.374 172.139 284.468 172.415 284.468 172.785ZM330.687 174.629C329.671 176.103 327.093 178.863 324.978 180.889C321.572 184.202 320.468 184.665 313.01 186.045L304.723 187.426L310.52 181.347C316.14 175.363 316.322 175.269 323.598 173.801C327.645 172.972 331.333 172.327 331.697 172.233C332.161 172.139 331.609 173.249 330.687 174.629ZM221.03 175.545C219.926 177.389 219.739 176.837 220.567 174.441C220.937 173.613 221.4 173.155 221.583 173.431C221.859 173.613 221.583 174.629 221.03 175.545ZM235.671 177.207C235.119 179.967 234.931 180.243 234.838 178.4C234.749 176.103 235.577 172.691 236.129 173.249C236.312 173.431 236.036 175.181 235.671 177.207ZM252.244 177.571C252.244 180.519 251.687 179.785 250.952 175.827C250.583 173.525 250.676 172.972 251.322 173.983C251.78 174.717 252.244 176.379 252.244 177.571ZM227.015 178.311C226.093 180.702 225.359 179.045 226.187 176.191C226.645 174.259 226.921 173.983 227.197 175.181C227.385 176.103 227.291 177.483 227.015 178.311ZM261.359 178.587C261.447 179.785 261.359 179.785 260.53 178.587C260.067 177.847 259.697 176.379 259.697 175.363V173.525L260.53 175.363C260.989 176.379 261.359 177.847 261.359 178.587ZM185.489 178.587C189.083 179.509 191.291 180.978 195.801 185.306C198.931 188.436 201.421 191.108 201.145 191.29C200.958 191.478 197.551 190.926 193.593 190.004C187.15 188.624 185.859 187.884 181.53 183.743C178.77 181.165 176.192 178.4 175.822 177.571C174.9 175.915 174.536 175.827 185.489 178.587ZM240.916 178.769C240.64 179.415 240.458 178.957 240.458 177.665C240.458 176.379 240.64 175.915 240.916 176.467C241.103 177.113 241.103 178.217 240.916 178.769ZM246.442 178.769C246.166 179.415 245.978 178.957 245.978 177.665C245.978 176.379 246.166 175.915 246.442 176.467C246.624 177.113 246.624 178.217 246.442 178.769ZM275.536 179.139C276.916 181.9 276.916 182.176 275.26 183.65C273.603 185.217 273.416 185.124 271.853 181.811C270.286 178.493 270.286 178.4 271.947 177.113C272.958 176.379 273.786 175.915 273.879 176.103C274.062 176.191 274.801 177.571 275.536 179.139ZM308.588 180.15C302.786 187.15 301.317 188.16 294.317 189.816C290.635 190.65 287.135 191.384 286.494 191.478C285.848 191.478 287.874 188.9 290.911 185.676C295.973 180.519 297.171 179.785 303.619 177.941C307.484 176.837 311.072 175.915 311.442 175.915C311.905 175.827 310.614 177.759 308.588 180.15ZM215.874 177.665C216.15 178.124 215.78 180.061 214.952 181.9C213.572 185.217 213.478 185.217 211.728 183.65C210.072 182.176 210.072 181.811 211.364 179.415C212.65 176.743 214.77 175.915 215.874 177.665ZM238.431 180.061C238.431 181.811 238.062 183.097 237.692 182.821C236.958 182.363 237.327 176.743 238.062 176.743C238.249 176.743 238.431 178.217 238.431 180.061ZM249.754 180.15C250.124 181.9 249.942 183.191 249.478 183.191C248.926 183.191 248.556 181.624 248.556 179.785C248.556 175.827 249.02 176.009 249.754 180.15ZM243.958 187.243C242.39 188.806 241.931 187.15 242.666 183.004L243.312 179.045L244.14 182.639C244.598 184.941 244.598 186.597 243.958 187.243ZM232.905 181.347C232.905 181.811 232.723 182.269 232.541 182.269C232.265 182.269 231.801 181.811 231.525 181.347C231.249 180.795 231.431 180.426 231.895 180.426C232.447 180.426 232.905 180.795 232.905 181.347ZM255.926 181.347C255.926 181.811 255.556 182.269 255.004 182.269C254.541 182.269 254.083 181.811 254.083 181.347C254.083 180.795 254.541 180.426 255.004 180.426C255.556 180.426 255.926 180.795 255.926 181.347ZM205.103 184.571C205.379 184.847 205.01 186.045 204.364 187.332L203.077 189.634L199.577 186.228C197.645 184.389 196.077 182.545 196.077 182.176C196.077 181.535 204.275 183.743 205.103 184.571ZM220.567 184.571C220.202 185.858 219.374 186.874 218.635 186.874C217.348 186.874 217.348 186.504 218.635 184.019C220.385 180.795 221.4 181.071 220.567 184.571ZM226.463 183.28C226.463 183.832 226.093 183.926 225.541 183.65C225.083 183.374 224.619 182.639 224.619 182.176C224.619 181.624 225.083 181.535 225.541 181.811C226.093 182.087 226.463 182.821 226.463 183.28ZM262.369 182.176C262.369 182.728 261.999 183.374 261.447 183.65C260.989 183.926 260.53 183.556 260.53 182.821C260.53 181.993 260.989 181.347 261.447 181.347C261.999 181.347 262.369 181.717 262.369 182.176ZM268.353 184.108C269.551 186.41 269.551 186.874 268.447 186.874C267.155 186.874 266.051 184.941 266.051 182.639C266.051 180.613 266.791 181.071 268.353 184.108ZM288.15 185.493C283.822 189.816 283.822 189.91 282.254 186.686C281.244 184.665 281.426 184.478 285.848 183.004C292.478 180.795 292.661 180.889 288.15 185.493ZM152.254 185.217L164.223 186.228L169.744 191.29C172.879 194.056 175.916 196.816 176.562 197.462C177.478 198.29 176.468 198.379 171.958 197.644C163.025 196.17 118.004 196.264 108.15 197.738C75.2804 202.707 51.0669 212.655 37.1659 227.014C30.2596 234.196 27.4054 240.181 26.8534 248.285C26.5773 251.967 26.119 255.004 25.7492 255.004C22.895 255.004 19.2127 246.259 19.2127 239.535C19.119 213.389 55.9471 190.097 104.931 185.124C116.713 183.926 138.905 183.926 152.254 185.217ZM232.723 187.608C232.999 190.738 231.984 191.384 230.145 189.176C228.853 187.608 229.775 183.832 231.343 184.389C231.984 184.571 232.541 186.045 232.723 187.608ZM257.306 185.952C257.952 187.884 256.478 190.556 254.911 190.556C253.989 190.556 253.806 185.676 254.728 184.754C255.833 183.65 256.754 184.108 257.306 185.952ZM393.937 186.874C438.593 194.79 467.869 215.597 467.78 239.535C467.78 246.259 464.093 255.004 461.239 255.004C460.874 255.004 460.411 251.967 460.135 248.285C459.583 239.999 456.546 233.827 449.364 226.644C435.369 212.561 409.681 202.066 378.838 197.738C369.447 196.446 331.609 196.17 318.994 197.275L310.708 198.014L316.228 192.488C319.728 188.9 322.676 186.686 324.515 186.41C340.171 183.556 376.629 183.743 393.937 186.874ZM211.728 188.071C211.728 189.54 209.614 194.238 208.874 194.238C208.598 194.238 207.588 193.686 206.572 192.952C204.827 191.66 204.827 191.566 206.572 188.347C208.046 185.582 208.598 185.217 209.984 186.045C210.994 186.504 211.728 187.426 211.728 188.071ZM223.978 187.332C223.333 189.264 222.78 189.082 222.78 186.78C222.78 185.769 223.145 185.124 223.702 185.493C224.161 185.769 224.343 186.597 223.978 187.332ZM264.213 187.056C264.213 188.712 264.025 188.9 263.385 187.795C262.827 187.056 262.739 186.134 262.921 185.769C263.749 184.478 264.213 184.941 264.213 187.056ZM280.786 188.806C281.89 191.384 281.89 191.842 280.322 192.952C277.931 194.696 277.655 194.608 275.994 191.014C274.614 187.884 274.614 187.702 276.458 186.41C278.76 184.847 279.312 185.124 280.786 188.806ZM190.463 195.525C193.499 198.566 195.895 201.144 195.801 201.233C195.343 201.696 182.635 199.118 181.254 198.29C180.426 197.827 177.296 195.16 174.26 192.306L168.734 187.15L176.838 188.624C184.848 190.097 185.03 190.186 190.463 195.525ZM318.53 187.243C318.53 187.332 315.676 190.097 312.181 193.228C306.103 198.566 305.364 198.936 298.551 200.129C294.593 200.775 291.28 201.233 291.093 201.144C290.911 201.051 293.395 198.472 296.437 195.525C301.775 190.374 302.51 190.004 309.603 188.53C318.442 186.78 318.53 186.78 318.53 187.243ZM239.077 189.264C239.26 189.816 238.338 190.738 237.051 191.29C234.473 192.488 234.286 192.212 235.853 189.634C237.051 187.795 238.525 187.608 239.077 189.264ZM252.244 191.566C252.244 192.03 251.228 191.842 249.942 191.29C247.546 190.28 247.176 189.54 248.28 188.436C248.926 187.702 252.244 190.374 252.244 191.566ZM219.098 190.186C219.098 190.926 218.728 191.29 218.176 191.014C217.713 190.738 217.254 190.097 217.254 189.54C217.254 189.082 217.713 188.712 218.176 188.712C218.728 188.712 219.098 189.358 219.098 190.186ZM269.181 190.097C268.812 190.832 268.447 191.478 268.26 191.478C268.077 191.478 267.895 190.832 267.895 190.097C267.895 189.358 268.26 188.712 268.812 188.712C269.275 188.712 269.458 189.358 269.181 190.097ZM217.254 194.332C217.254 196.264 216.885 196.358 213.848 195.525C211.916 194.972 211.916 194.884 213.296 192.764C214.4 191.014 215.046 190.738 215.968 191.566C216.702 192.118 217.254 193.41 217.254 194.332ZM273.603 195.342C270.931 196.446 269.734 196.17 269.734 194.42C269.734 193.504 270.286 192.212 270.838 191.66C271.76 190.738 272.312 190.926 273.603 192.582C275.077 194.608 275.077 194.696 273.603 195.342ZM197.093 193.04C199.947 193.592 200.405 194.884 198.655 197.186C197.551 198.566 196.999 198.29 193.317 194.972C189.359 191.478 189.359 191.29 191.843 191.842C193.223 192.212 195.619 192.764 197.093 193.04ZM225.171 192.952C224.895 193.78 224.619 194.79 224.619 195.249C224.619 195.712 224.254 196.082 223.702 196.082C222.687 196.082 222.411 193.04 223.421 192.118C224.53 190.926 225.723 191.478 225.171 192.952ZM264.213 193.228C264.853 194.514 264.853 195.249 264.119 195.712C263.015 196.358 261.447 194.608 261.447 192.582C261.447 190.832 263.103 191.29 264.213 193.228ZM293.213 195.16C289.9 198.566 289.437 198.749 288.426 197.275C286.494 194.696 287.046 193.592 290.728 192.582C296.619 191.014 296.895 191.384 293.213 195.16ZM238.614 194.42C237.973 195.066 237.51 195.16 237.51 194.608C237.51 194.056 237.786 193.316 238.155 193.04C238.431 192.67 238.984 192.582 239.26 192.858C239.442 193.134 239.166 193.868 238.614 194.42ZM258.687 194.238C258.687 194.696 258.504 195.16 258.317 195.16C258.041 195.16 257.583 194.696 257.306 194.238C257.03 193.686 257.213 193.316 257.676 193.316C258.228 193.316 258.687 193.686 258.687 194.238ZM206.76 196.17C207.405 197.275 204.275 202.525 202.89 202.525C200.405 202.525 199.671 200.04 201.327 197.275C202.801 194.608 205.468 194.056 206.76 196.17ZM244.874 196.17C244.874 196.634 244.234 196.999 243.494 196.999C242.114 196.999 241.655 195.894 242.666 194.884C243.4 194.144 244.874 194.972 244.874 196.17ZM287.228 200.405C287.228 201.051 286.4 201.972 285.478 202.525C284.004 203.259 283.364 202.983 281.796 200.775C279.312 197.368 279.4 196.17 281.978 195.249C283.64 194.608 284.28 194.972 285.572 196.91C286.494 198.196 287.228 199.764 287.228 200.405ZM215.322 198.472C215.504 198.66 215.504 199.118 215.135 199.394C214.859 199.67 213.666 199.212 212.468 198.379L210.348 196.816L212.65 197.462C213.942 197.827 215.135 198.29 215.322 198.472ZM231.067 198.842C231.067 199.853 230.421 200.681 229.687 200.681C228.025 200.681 227.937 199.577 229.411 198.103C230.879 196.634 231.067 196.722 231.067 198.842ZM258.504 200.316C257.583 201.233 255.926 199.764 255.926 198.103C255.926 196.722 256.015 196.722 257.489 198.196C258.317 199.025 258.78 199.946 258.504 200.316ZM274.801 198.842C273.879 199.853 272.775 200.405 272.405 200.129C271.025 199.301 271.484 198.103 273.234 197.644C276.27 196.816 276.458 196.999 274.801 198.842ZM172.968 199.764C176.744 200.316 180.52 201.327 181.442 201.879C185.03 204.457 190.556 209.983 190.187 210.717C189.911 211.087 186.874 210.993 183.463 210.535C173.984 209.155 131.723 209.243 121.963 210.629C84.9523 215.874 59.5409 226.186 44.8065 242.025C39.9263 247.269 36.7961 253.53 36.7961 258.321C36.7961 260.066 36.6138 261.452 36.4263 261.452C34.77 261.452 29.5252 257.306 29.0617 255.65C25.3794 241.931 37.8117 225.082 59.4471 214.217C73.5357 207.129 95.5357 201.144 115.15 198.936C124.911 197.827 163.853 198.379 172.968 199.764ZM370.181 198.842C398.999 201.79 425.056 210.441 441.077 222.504C454.062 232.353 460.687 245.243 457.926 255.65C457.468 257.306 452.218 261.452 450.562 261.452C450.379 261.452 450.192 259.884 450.192 257.952C450.192 252.519 446.234 245.707 439.239 239.17C416.124 217.347 367.145 205.837 313.926 209.801C305.551 210.441 298.369 210.993 297.911 211.087C297.447 211.181 296.989 210.811 296.801 210.259C296.525 209.707 298.921 207.311 302.051 204.92L307.666 200.592L318.806 199.394C332.713 197.827 357.572 197.644 370.181 198.842ZM212.28 203.353C211.64 204.275 207.129 204.827 207.129 203.905C207.129 203.722 207.588 202.431 208.234 201.144C209.244 198.749 209.338 198.749 211.088 200.592C212.098 201.514 212.562 202.801 212.28 203.353ZM269.734 200.681C270.562 202.155 270.473 202.525 269.275 202.525C268.536 202.525 267.895 201.696 267.895 200.681C267.895 199.67 268.077 198.842 268.353 198.842C268.536 198.842 269.181 199.67 269.734 200.681ZM279.864 203.629C279.864 204.733 275.442 204.457 274.801 203.353C274.431 202.894 274.89 201.603 275.812 200.592C277.468 198.749 277.468 198.749 278.666 200.868C279.312 202.066 279.77 203.259 279.864 203.629ZM219.098 201.144C219.098 201.879 218.452 202.525 217.713 202.525C216.885 202.525 216.609 201.972 216.885 201.144C217.254 200.405 217.806 199.764 218.27 199.764C218.728 199.764 219.098 200.405 219.098 201.144ZM244.692 201.327C244.322 203.353 242.666 203.17 242.296 201.233C242.114 200.316 242.572 199.764 243.494 199.764C244.416 199.764 244.874 200.405 244.692 201.327ZM193.687 203.446C194.051 203.905 193.869 205.009 193.223 206.025C191.937 207.775 191.843 207.775 188.254 204.733L184.572 201.603L188.713 202.155C191.015 202.525 193.223 203.077 193.687 203.446ZM264.213 207.405C264.213 207.775 263.385 207.587 262.369 206.946C261.359 206.301 260.53 204.733 260.53 203.446V201.144L262.369 203.905C263.385 205.379 264.213 206.946 264.213 207.405ZM298.645 204.733C295.145 207.681 295.056 207.775 293.859 206.025C292.291 203.905 292.661 203.446 296.619 202.525C302.051 201.233 302.327 201.514 298.645 204.733ZM224.989 206.853C222.593 208.603 222.317 207.587 224.254 204.644C225.723 202.342 225.999 202.249 226.275 203.811C226.463 204.827 225.911 206.113 224.989 206.853ZM240.64 203.999C240.916 204.733 240.827 205.103 240.27 204.827C239.718 204.551 239.353 203.905 239.353 203.353C239.353 202.066 239.994 202.342 240.64 203.999ZM200.775 205.561C200.775 206.665 197.551 211.733 196.905 211.733C196.541 211.733 195.801 211.087 195.155 210.353C193.499 208.327 196.629 203.353 199.025 204.275C200.036 204.644 200.775 205.196 200.775 205.561ZM291.463 206.665C294.317 211.087 290.359 212.467 287.322 208.139C284.833 204.733 284.926 204.368 287.687 204.368C289.072 204.368 290.541 205.196 291.463 206.665ZM236.312 207.311C236.036 208.051 235.76 207.775 235.76 206.759C235.671 205.749 235.947 205.196 236.223 205.561C236.499 205.837 236.588 206.665 236.312 207.311ZM251.046 207.311C250.77 208.051 250.494 207.775 250.494 206.759C250.4 205.749 250.676 205.196 250.952 205.561C251.228 205.837 251.322 206.665 251.046 207.311ZM209.426 207.129C209.15 207.587 208.322 207.775 207.588 207.405C205.655 206.759 205.838 206.207 208.14 206.207C209.15 206.207 209.796 206.577 209.426 207.129ZM280.786 206.577C280.786 207.405 278.02 207.863 277.562 207.129C277.192 206.577 277.838 206.207 278.848 206.207C279.952 206.207 280.786 206.389 280.786 206.577ZM233.645 209.243C233.827 210.353 233.369 210.811 232.077 210.811C229.963 210.811 229.869 210.717 230.697 208.509C231.431 206.759 233.275 207.129 233.645 209.243ZM207.129 209.431C207.129 209.613 205.838 210.717 204.181 211.821L201.327 213.941L202.984 211.087C203.999 209.431 205.192 208.415 205.931 208.691C206.572 208.967 207.129 209.337 207.129 209.431ZM216.333 208.879C216.333 209.889 213.666 212.097 213.114 211.545C212.192 210.717 213.754 208.051 215.046 208.051C215.78 208.051 216.333 208.415 216.333 208.879ZM256.843 208.967C256.843 210.077 254.265 211.269 253.53 210.535C252.702 209.707 254.083 208.051 255.556 208.051C256.291 208.051 256.843 208.509 256.843 208.967ZM273.786 209.519C274.708 212.009 273.51 212.285 271.39 210.077L269.369 208.051H271.301C272.312 208.051 273.51 208.691 273.786 209.519ZM284.556 212.009C285.478 213.665 285.385 213.665 283.176 212.191C280.692 210.535 280.322 209.707 281.426 208.691C282.072 208.051 282.718 208.691 284.556 212.009ZM241.655 210.905C242.666 212.467 241.562 212.837 240.27 211.269C239.536 210.441 239.536 209.889 240.088 209.889C240.64 209.889 241.379 210.353 241.655 210.905ZM246.718 211.269C246.072 212.097 245.338 212.467 245.15 212.285C244.51 211.639 245.796 209.889 246.9 209.889C247.452 209.889 247.452 210.441 246.718 211.269ZM182.083 212.285C185.213 212.655 187.791 213.295 187.791 213.665C187.791 214.124 186.687 216.15 185.306 218.082L182.728 221.769L164.775 221.858C118.004 221.952 78.3221 232.816 57.9732 251.045C52.7232 255.743 47.8429 262.644 47.8429 265.222C47.8429 266.696 47.4784 266.696 43.244 264.858C39.0044 263.014 38.6398 262.556 38.6398 259.608C38.6398 249.295 51.9888 235.577 70.4002 226.926C87.619 218.821 108.702 213.665 134.39 211.363C139.916 210.905 174.812 211.545 182.083 212.285ZM223.145 211.639C223.421 212.097 223.056 212.931 222.317 213.571C221.124 214.493 220.937 214.4 220.937 212.743C220.937 210.811 222.228 210.165 223.145 211.639ZM266.051 213.295C266.051 214.493 265.775 214.493 264.671 213.571C263.937 212.931 263.567 212.097 263.843 211.639C264.577 210.441 266.051 211.545 266.051 213.295ZM365.025 212.655C390.53 216.061 414.562 223.978 428.65 233.644C440.249 241.472 448.353 252.243 448.353 259.702C448.353 262.832 448.077 263.108 444.114 264.67C441.817 265.499 439.879 266.144 439.791 265.962C439.697 265.775 438.593 263.566 437.395 261.176C430.952 248.467 409.405 235.853 381.874 228.858C362.359 223.79 352.78 222.597 327.187 222.134L304.171 221.676L302.145 218.728C298.093 212.837 297.999 212.931 309.051 212.191C314.484 211.915 319.452 211.457 319.911 211.181C321.572 210.535 357.478 211.639 365.025 212.655ZM209.338 213.113C208.786 214.587 207.129 215.045 207.129 213.759C207.129 212.743 208.14 211.733 209.062 211.733C209.52 211.733 209.614 212.374 209.338 213.113ZM279.676 213.389C280.228 215.045 278.296 214.676 277.655 213.019C277.286 212.097 277.562 211.733 278.208 211.915C278.76 212.097 279.494 212.837 279.676 213.389ZM194.515 214.124C195.525 215.228 189.541 221.858 187.609 221.858C185.583 221.858 185.583 221.769 188.713 217.071C190.833 213.847 193.135 212.743 194.515 214.124ZM298.369 216.978C301.405 221.858 301.405 221.858 299.379 221.858C297.635 221.858 292.754 216.519 292.754 214.587C292.754 212.191 296.437 213.847 298.369 216.978ZM239.166 216.426C237.416 217.624 236.588 217.441 236.588 215.967C236.588 215.139 237.234 214.863 238.525 215.139C239.994 215.509 240.088 215.874 239.166 216.426ZM250.4 215.785C250.4 216.702 249.754 216.889 248.374 216.519C246.442 216.061 246.442 215.967 248.192 215.321C249.109 214.952 250.03 214.587 250.218 214.587C250.306 214.493 250.4 215.045 250.4 215.785ZM197.921 215.785C197.921 215.967 197.181 216.702 196.353 217.347C194.879 218.545 194.791 218.452 195.989 216.978C197.181 215.509 197.921 215.045 197.921 215.785ZM291.004 216.978C292.202 218.452 292.109 218.545 290.728 217.347C289.161 216.15 288.702 215.415 289.437 215.415C289.624 215.415 290.359 216.15 291.004 216.978ZM207.129 216.702C207.129 217.717 205.379 218.082 204.827 217.254C204.551 216.795 204.916 216.337 205.655 216.337C206.484 216.337 207.129 216.519 207.129 216.702ZM282.624 216.702C282.624 217.717 280.874 218.082 280.322 217.254C280.046 216.795 280.416 216.337 281.15 216.337C281.978 216.337 282.624 216.519 282.624 216.702ZM200.681 217.624C200.681 217.806 199.947 218.545 199.119 219.191C197.645 220.384 197.551 220.295 198.749 218.821C199.947 217.347 200.681 216.889 200.681 217.624ZM215.874 218.176C216.52 219.28 211.088 222.134 209.796 221.306C208.51 220.571 211.546 217.254 213.666 217.254C214.583 217.254 215.504 217.624 215.874 218.176ZM276.546 219.004C278.76 221.493 276.916 222.321 273.327 220.384C271.025 219.28 270.655 218.728 271.666 218.082C273.603 216.889 274.801 217.071 276.546 219.004ZM288.239 218.821C289.437 220.295 289.348 220.384 287.963 219.191C286.4 217.993 285.937 217.254 286.676 217.254C286.859 217.254 287.598 217.993 288.239 218.821ZM232.629 218.728C232.353 219.004 231.525 219.097 230.879 218.821C230.145 218.545 230.421 218.269 231.431 218.269C232.447 218.176 232.999 218.452 232.629 218.728ZM203.442 219.467C203.442 219.65 202.338 220.571 200.958 221.4L198.379 223.056L200.129 221.124C201.697 219.28 203.442 218.452 203.442 219.467ZM241.562 220.478C241.01 221.952 239.353 222.41 239.353 221.124C239.353 220.108 240.364 219.097 241.286 219.097C241.744 219.097 241.838 219.743 241.562 220.478ZM247.27 221.582C246.624 222.228 244.874 220.936 244.874 219.832C244.874 219.28 245.426 219.28 246.254 220.019C247.088 220.66 247.452 221.4 247.27 221.582ZM285.848 220.019C286.124 220.571 285.754 220.66 285.02 220.384C283.364 219.743 283.083 219.097 284.374 219.097C284.926 219.097 285.572 219.467 285.848 220.019ZM218.27 224.9C216.609 226.556 215.968 224.806 217.254 222.134L218.546 219.556L218.911 221.769C219.098 222.962 218.822 224.347 218.27 224.9ZM270.197 222.874C271.666 225.54 271.577 225.728 270.01 225.358C268.999 225.176 268.26 224.071 268.077 222.504C267.708 219.28 268.447 219.374 270.197 222.874ZM222.317 221.769C222.593 222.228 222.411 222.874 221.859 223.238C221.4 223.514 220.937 223.15 220.937 222.41C220.937 220.754 221.489 220.478 222.317 221.769ZM266.051 222.41C266.051 223.15 265.593 223.514 265.129 223.238C264.577 222.874 264.395 222.228 264.671 221.769C265.499 220.478 266.051 220.754 266.051 222.41ZM208.51 222.78C208.786 223.238 208.416 223.702 207.588 223.702C206.76 223.702 206.39 223.238 206.666 222.78C206.942 222.228 207.405 221.858 207.588 221.858C207.77 221.858 208.234 222.228 208.51 222.78ZM232.905 222.686C232.905 223.608 230.145 224.9 229.499 224.254C229.223 223.978 229.317 223.426 229.687 222.874C230.421 221.676 232.905 221.493 232.905 222.686ZM257.306 222.686C258.228 224.254 256.202 224.624 255.004 223.238C254.083 222.134 254.083 221.858 255.28 221.858C256.109 221.858 256.937 222.228 257.306 222.686ZM279.864 222.78C279.864 223.238 279.4 223.702 278.848 223.702C278.39 223.702 278.208 223.238 278.484 222.78C278.76 222.228 279.218 221.858 279.494 221.858C279.676 221.858 279.864 222.228 279.864 222.78ZM178.03 228.212L174.624 232.722L165.786 233.368C142.036 234.931 122.609 238.431 104.468 244.415C86.0565 250.4 72.7023 257.764 64.8794 266.144L60.4575 270.842L55.119 269.275C52.0825 268.353 49.6867 267.249 49.6867 266.79C49.6867 264.946 52.9107 259.978 56.9627 255.65C69.9419 241.749 96.369 230.884 128.869 226.092C142.77 224.071 143.14 223.978 163.208 223.884L181.348 223.702L178.03 228.212ZM186.874 224.347C186.874 224.806 184.661 226.926 181.994 229.222L177.202 233.368L179.874 229.686C181.348 227.66 183.004 225.452 183.463 224.806C184.385 223.608 186.874 223.238 186.874 224.347ZM227.385 226.092C227.385 227.384 226.275 227.842 225.265 226.832C224.437 226.004 225.635 223.608 226.556 224.254C227.015 224.53 227.385 225.358 227.385 226.092ZM235.671 224.624C235.671 225.082 235.208 225.54 234.655 225.54C234.197 225.54 234.01 225.082 234.286 224.624C234.562 224.071 235.025 223.702 235.301 223.702C235.484 223.702 235.671 224.071 235.671 224.624ZM252.702 224.624C252.978 225.082 252.796 225.54 252.333 225.54C251.78 225.54 251.322 225.082 251.322 224.624C251.322 224.071 251.504 223.702 251.687 223.702C251.963 223.702 252.426 224.071 252.702 224.624ZM306.379 228.764L309.786 233.368L304.905 229.41C299.103 224.53 298.369 223.426 301.041 223.884C302.145 224.071 304.447 226.186 306.379 228.764ZM351.124 225.082C386.296 229.222 416.124 240.827 430.03 255.65C434.083 259.978 437.301 264.946 437.301 266.79C437.301 267.249 434.911 268.353 431.869 269.275L426.53 270.842L422.572 266.608C406.369 249.019 368.525 236.681 320.65 233.275L312.27 232.722L309.416 228.764C307.853 226.556 306.562 224.53 306.562 224.254C306.562 223.15 339.708 223.79 351.124 225.082ZM191.473 226.462C190.463 228.394 184.937 232.91 183.556 232.91C183.187 232.91 184.661 231.066 186.874 228.764C191.197 224.436 193.135 223.426 191.473 226.462ZM262.187 226.28C262.369 226.926 261.911 227.384 261.083 227.384C260.249 227.384 259.609 226.738 259.609 225.91C259.609 224.347 261.635 224.624 262.187 226.28ZM299.655 228.306C301.593 230.332 302.973 232.17 302.697 232.446C302.051 233.186 296.713 228.582 295.421 226.368C293.947 223.514 295.791 224.347 299.655 228.306ZM196.999 229.222C193.135 232.634 190.004 234.014 190.739 231.988C191.197 230.608 198.291 225.634 199.76 225.634C200.499 225.634 199.301 227.202 196.999 229.222ZM291.739 227.936C295.421 230.332 297.265 232.91 295.239 232.91C293.765 232.816 285.572 225.54 287.046 225.54C287.687 225.54 289.806 226.644 291.739 227.936ZM212.192 227.384C211.916 227.842 210.718 228.764 209.614 229.316C207.681 230.238 207.681 230.144 209.796 228.394C212.098 226.28 213.114 225.91 212.192 227.384ZM244.874 229.316C244.874 230.238 244.234 231.066 243.494 231.066C242.114 231.066 241.562 228.212 242.666 227.108C243.681 226.186 244.874 227.384 244.874 229.316ZM278.39 229.134C278.76 229.592 277.931 229.499 276.64 228.946C275.353 228.306 274.338 227.478 274.338 227.108C274.338 226.28 277.655 227.936 278.39 229.134ZM282.718 228.946L284.926 231.525L282.166 229.222C280.692 227.936 279.218 226.832 279.036 226.644C278.848 226.556 279.036 226.462 279.588 226.462C280.046 226.462 281.426 227.566 282.718 228.946ZM206.208 227.66C206.208 227.842 205.379 228.764 204.364 229.686C202.155 231.618 201.879 230.972 203.999 228.858C205.379 227.478 206.208 227.014 206.208 227.66ZM219.098 230.514C219.098 231.16 218.359 231.988 217.53 232.264C216.609 232.446 215.046 232.999 214.03 233.368C212.744 233.827 213.02 233.275 214.952 231.618C218.083 228.946 219.098 228.67 219.098 230.514ZM272.036 231.618C273.968 233.275 274.244 233.827 272.958 233.368C271.947 232.999 270.379 232.446 269.551 232.264C268.629 231.988 267.895 231.16 267.895 230.514C267.895 228.67 268.905 228.946 272.036 231.618ZM199.577 231.894C198.931 232.91 198.103 233.462 197.645 233.186C197.275 232.91 197.645 232.17 198.567 231.436C200.775 229.78 200.864 229.868 199.577 231.894ZM228.301 231.618C228.301 232.353 227.843 232.722 227.385 232.446C226.833 232.077 226.645 231.436 226.921 230.972C227.749 229.686 228.301 229.962 228.301 231.618ZM260.067 230.972C260.343 231.436 260.161 232.077 259.609 232.446C259.145 232.722 258.687 232.353 258.687 231.618C258.687 229.962 259.239 229.686 260.067 230.972ZM209.89 232.446C209.244 233.186 208.046 233.827 207.218 233.827C206.208 233.738 206.484 233.368 208.046 232.446C210.994 230.79 211.27 230.79 209.89 232.446ZM279.864 233.644C279.218 233.92 278.114 233.368 277.286 232.446C275.812 231.066 275.905 230.972 278.39 232.077C279.77 232.722 280.51 233.462 279.864 233.644ZM289.437 232.999C288.885 234.014 287.228 233.186 287.228 231.988C287.228 231.525 287.874 231.342 288.609 231.618C289.348 231.988 289.713 232.54 289.437 232.999ZM226.093 234.29C227.749 235.577 227.661 235.577 224.895 235.67C222.041 235.67 221.124 234.842 222.504 233.551C223.421 232.634 224.067 232.722 226.093 234.29ZM264.947 234.566C265.129 235.301 264.213 235.67 262.187 235.67C259.333 235.577 259.239 235.577 260.989 234.29C262.921 232.722 264.395 232.91 264.947 234.566ZM168.734 240.087L164.317 245.519L153.265 247.181C125.275 251.321 98.9419 260.254 82.8325 271.118C77.4002 274.801 75.5565 274.889 66.7179 272.405L63.0357 271.394L69.2961 265.592C87.2492 248.837 124.265 237.696 171.036 234.842C173.062 234.749 172.786 235.207 168.734 240.087ZM196.077 235.946C195.343 236.681 193.041 238.155 191.015 239.259L187.333 241.379L190.739 238.061C192.671 236.222 194.879 234.749 195.801 234.749C197.181 234.749 197.181 234.931 196.077 235.946ZM237.51 236.129C237.51 237.696 237.327 237.785 235.208 236.957C234.01 236.499 233.921 236.222 234.931 235.577C236.681 234.379 237.51 234.566 237.51 236.129ZM252.056 235.577C253.072 236.222 253.072 236.405 251.963 236.868C250.494 237.42 249.478 236.868 249.478 235.488C249.478 234.566 250.494 234.566 252.056 235.577ZM296.249 238.061L299.655 241.285L294.869 238.431C289.713 235.301 289.161 234.749 291.463 234.749C292.202 234.749 294.411 236.222 296.249 238.061ZM339.249 237.144C372.208 241.009 402.963 252.056 417.416 265.222C420.728 268.264 423.306 271.118 423.03 271.483C422.848 271.946 419.536 272.775 415.848 273.42L409.036 274.525L404.525 271.301C389.885 260.9 360.609 250.952 333.265 247.087L322.489 245.519L318.166 240.181L313.838 234.749L320.556 235.207C324.239 235.577 332.713 236.405 339.249 237.144ZM203.353 237.42C202.155 238.342 200.129 239.629 198.931 240.275L196.723 241.379L198.749 238.525C200.129 236.592 201.603 235.67 203.166 235.67H205.562L203.353 237.42ZM246.718 237.972C246.718 238.249 245.15 238.431 243.312 238.431C240.088 238.342 239.905 238.249 241.562 237.051C242.76 236.129 243.77 236.04 244.968 236.681C245.978 237.144 246.718 237.785 246.718 237.972ZM286.306 236.592C287.322 237.144 288.515 238.431 289.161 239.446C290.083 241.196 289.989 241.285 287.963 240.181C286.77 239.629 284.833 238.342 283.64 237.42C281.89 236.04 281.796 235.67 282.994 235.67C283.916 235.67 285.385 236.129 286.306 236.592ZM211.728 237.972C211.088 238.801 210.348 239.17 210.166 238.983C209.52 238.342 210.812 236.592 211.916 236.592C212.468 236.592 212.468 237.144 211.728 237.972ZM217.254 238.431C215.046 239.811 213.942 239.446 215.968 238.061C216.885 237.327 217.9 236.957 218.176 237.144C218.359 237.42 217.994 237.972 217.254 238.431ZM272.129 239.077C271.577 239.629 268.812 238.249 268.812 237.42C268.812 236.957 269.645 237.051 270.655 237.696C271.577 238.342 272.312 238.983 272.129 239.077ZM276.64 237.603C277.655 239.17 276.822 239.259 274.89 237.879C273.327 236.775 273.327 236.592 274.52 236.592C275.353 236.592 276.364 237.051 276.64 237.603ZM227.661 240.275C227.197 242.207 223.239 243.775 222.041 242.577C221.306 241.837 225.265 238.431 226.921 238.431C227.661 238.431 227.937 239.17 227.661 240.275ZM232.905 238.801C232.905 239.077 232.541 239.535 231.984 239.811C231.525 240.087 231.067 239.905 231.067 239.446C231.067 238.894 231.525 238.431 231.984 238.431C232.541 238.431 232.905 238.618 232.905 238.801ZM255.926 239.353C255.926 239.811 255.739 240.275 255.556 240.275C255.28 240.275 254.822 239.811 254.541 239.353C254.265 238.801 254.452 238.431 254.911 238.431C255.463 238.431 255.926 238.801 255.926 239.353ZM263.385 240.181C265.958 242.301 265.223 243.493 261.911 242.665C260.437 242.301 259.609 241.472 259.609 240.275C259.609 237.972 260.619 237.972 263.385 240.181ZM173.984 239.629C173.984 239.811 172.598 241.103 171.036 242.665L167.999 245.337L170.666 242.301C173.244 239.535 173.984 238.894 173.984 239.629ZM206.208 240.181C206.208 242.025 203.166 243.957 200.405 243.957H197.458L201.145 241.655C205.192 239.17 206.208 238.894 206.208 240.181ZM284.744 241.379C286.859 242.389 288.056 243.493 287.411 243.775C285.754 244.327 281.062 242.207 280.416 240.639C279.77 238.894 280.14 238.983 284.744 241.379ZM295.515 243.217C295.515 244.327 294.963 244.051 293.119 242.025C291.369 239.999 291.369 239.999 293.489 241.285C294.593 242.025 295.515 242.853 295.515 243.217ZM193.317 242.577C192.671 243.311 191.749 243.957 191.197 243.957C190.645 243.957 191.015 243.311 192.025 242.577C194.327 240.827 194.791 240.827 193.317 242.577ZM214.859 242.577C213.942 243.311 212.28 243.863 211.27 243.863C209.89 243.863 210.072 243.587 212.192 242.577C215.874 240.92 217.072 240.92 214.859 242.577ZM276.181 243.129C277.286 243.775 277.192 243.863 275.629 243.957C274.614 243.957 272.958 243.311 271.947 242.483C270.286 241.196 270.286 241.103 272.499 241.749C273.786 242.025 275.442 242.665 276.181 243.129ZM220.015 243.035C220.015 243.493 219.556 243.957 219.004 243.957C218.546 243.957 218.359 243.493 218.635 243.035C218.911 242.483 219.374 242.113 219.65 242.113C219.833 242.113 220.015 242.483 220.015 243.035ZM236.588 242.759C236.499 244.509 234.931 245.795 233.551 245.243C230.791 244.233 231.895 242.853 235.947 242.207C236.312 242.207 236.588 242.389 236.588 242.759ZM254.176 243.035C255.556 243.035 255.098 244.603 253.437 245.243C252.609 245.613 251.598 245.337 251.135 244.691C250.03 242.759 250.306 241.837 251.874 242.483C252.702 242.759 253.713 243.035 254.176 243.035ZM245.338 244.785C246.072 246.071 244.14 246.993 242.296 246.259C241.01 245.795 241.01 245.613 242.114 244.879C243.864 243.775 244.598 243.775 245.338 244.785ZM196.999 246.165C196.999 246.347 196.171 246.717 195.155 246.993C194.145 247.269 193.499 247.087 193.869 246.629C194.327 245.795 196.999 245.431 196.999 246.165ZM208.046 246.165C208.046 246.347 207.405 246.811 206.572 247.087C205.838 247.363 205.468 247.269 205.744 246.717C206.296 245.795 208.046 245.431 208.046 246.165ZM281.244 246.717C281.52 247.269 281.15 247.363 280.416 247.087C278.76 246.441 278.484 245.795 279.77 245.795C280.322 245.795 280.968 246.165 281.244 246.717ZM291.556 250.952C290.817 251.78 285.296 249.202 284.468 247.639C283.728 246.165 284.192 246.259 287.78 248.285C290.083 249.571 291.739 250.769 291.556 250.952ZM293.213 246.717C293.489 247.269 293.119 247.363 292.385 247.087C290.728 246.441 290.452 245.795 291.739 245.795C292.291 245.795 292.937 246.165 293.213 246.717ZM202.525 247.733C202.525 248.561 197.093 251.321 195.437 251.321C194.791 251.321 201.51 246.811 202.338 246.717C202.431 246.717 202.525 247.181 202.525 247.733ZM224.619 248.097C224.619 248.837 224.254 249.483 223.702 249.483C223.239 249.483 222.78 248.837 222.78 248.097C222.78 247.363 223.239 246.717 223.702 246.717C224.254 246.717 224.619 247.363 224.619 248.097ZM230.145 247.639C230.145 248.097 229.499 248.561 228.765 248.561C228.025 248.561 227.385 248.097 227.385 247.639C227.385 247.087 228.025 246.717 228.765 246.717C229.499 246.717 230.145 247.087 230.145 247.639ZM259.609 247.639C259.609 248.097 258.963 248.561 258.228 248.561C257.489 248.561 256.843 248.097 256.843 247.639C256.843 247.087 257.489 246.717 258.228 246.717C258.963 246.717 259.609 247.087 259.609 247.639ZM264.213 248.65C264.213 249.113 263.843 249.483 263.291 249.483C262.827 249.483 262.369 248.837 262.369 248.009C262.369 247.269 262.827 246.905 263.291 247.181C263.843 247.457 264.213 248.097 264.213 248.65ZM156.306 253.993C150.598 260.254 150.411 260.342 142.4 262.368C131.26 265.04 119.661 268.999 109.442 273.42C100.968 277.103 100.603 277.191 93.4211 276.551C89.369 276.181 85.1346 275.629 83.8429 275.353C81.7284 274.707 81.8169 274.613 85.3169 272.316C92.3169 267.712 105.76 261.452 116.806 257.764C126.197 254.634 147.833 249.665 157.869 248.285C159.437 248.097 160.999 247.821 161.369 247.733C161.827 247.733 159.525 250.493 156.306 253.993ZM283.452 251.874C284.192 252.519 284.556 253.347 284.28 253.717C283.452 254.452 273.416 249.847 273.416 248.65C273.416 247.545 281.614 250.124 283.452 251.874ZM345.234 251.415C360.333 254.358 377.364 259.608 387.583 264.488C395.317 268.17 405.353 274.337 404.801 274.983C404.525 275.17 400.385 275.811 395.411 276.275L386.478 277.191L378.468 273.785C368.713 269.551 355.27 264.946 344.588 262.28C336.671 260.254 336.301 260.066 330.593 253.993L324.702 247.733L328.291 248.191C330.317 248.467 337.869 249.941 345.234 251.415ZM213.572 249.019C213.572 249.759 204.181 254.082 202.525 254.082C201.51 254.082 201.51 253.806 202.801 252.426C205.286 250.035 213.572 247.363 213.572 249.019ZM220.937 249.483C220.937 249.941 220.015 250.4 218.911 250.4C217.161 250.4 217.072 250.217 218.176 249.483C219.926 248.285 220.937 248.285 220.937 249.483ZM240.27 249.847C240.27 250.587 240.546 251.78 240.827 252.613C241.286 253.806 240.734 254.082 238.431 254.082C235.853 254.082 235.577 253.9 236.223 251.967C237.14 248.837 240.27 247.269 240.27 249.847ZM244.786 249.665C244.786 250.311 244.416 251.691 243.958 252.702C243.312 254.176 243.124 254.269 243.124 252.978C243.036 252.15 242.76 250.863 242.484 250.035C242.114 249.019 242.39 248.561 243.4 248.561C244.234 248.561 244.874 249.113 244.786 249.665ZM250.583 250.769C252.056 252.889 251.228 254.082 248.468 254.082C246.254 254.082 245.702 253.806 246.166 252.613C246.442 251.78 246.718 250.587 246.718 249.847C246.718 248.467 249.478 249.113 250.583 250.769ZM268.812 250.035C268.812 250.217 268.171 250.4 267.431 250.4C266.697 250.4 266.051 250.035 266.051 249.483C266.051 249.019 266.697 248.837 267.431 249.113C268.171 249.483 268.812 249.847 268.812 250.035ZM234.103 251.321C233.827 252.337 233.458 253.165 233.275 253.165C233.093 253.165 232.905 252.337 232.905 251.321C232.905 250.311 233.275 249.483 233.734 249.483C234.197 249.483 234.379 250.311 234.103 251.321ZM254.083 251.78C254.083 253.071 253.9 254.082 253.713 254.082C253.53 254.082 253.161 253.071 252.978 251.78C252.702 250.493 252.885 249.483 253.254 249.483C253.713 249.483 254.083 250.493 254.083 251.78ZM231.067 252.337C231.067 252.795 229.687 253.165 228.119 253.165L225.083 253.071L227.385 251.874C229.687 250.587 231.067 250.676 231.067 252.337ZM259.609 251.78L261.911 253.071L258.963 253.165C256.843 253.165 255.926 252.702 255.926 251.78C255.926 250.124 256.661 250.124 259.609 251.78ZM209.984 256.295C208.786 257.676 200.036 260.16 199.208 259.332C198.197 258.321 205.468 255.374 209.796 255.097C210.718 255.004 210.812 255.28 209.984 256.295ZM220.478 255.926C220.202 256.384 219.004 256.847 217.9 256.754C215.968 256.754 215.968 256.66 217.713 255.926C220.291 254.821 221.124 254.821 220.478 255.926ZM227.109 255.556C226.833 255.832 225.999 255.926 225.359 255.65C224.619 255.374 224.895 255.097 225.911 255.097C226.921 255.004 227.473 255.28 227.109 255.556ZM262.093 255.556C261.817 255.832 260.989 255.926 260.343 255.65C259.609 255.374 259.885 255.097 260.895 255.097C261.911 255.004 262.463 255.28 262.093 255.556ZM268.812 255.926C270.01 256.754 270.01 256.847 268.812 256.847C268.077 256.847 266.791 256.384 266.051 255.926C264.853 255.097 264.853 255.004 266.051 255.004C266.791 255.004 268.077 255.467 268.812 255.926ZM282.442 256.384C288.239 258.134 289.9 259.978 284.744 259.056C281.244 258.41 276.181 256.295 276.181 255.467C276.181 254.728 277.374 254.91 282.442 256.384ZM242.114 259.15C242.114 262.28 242.02 262.368 238.431 262.368C235.853 262.368 234.749 262.004 234.655 260.988C234.562 260.254 234.473 259.056 234.379 258.504C234.286 257.488 237.234 256.384 241.01 256.019C241.655 255.926 242.114 257.124 242.114 259.15ZM252.426 257.582C252.796 257.952 252.885 259.15 252.609 260.342C252.15 262.004 251.411 262.368 248.468 262.368C244.968 262.368 244.874 262.28 244.874 259.056V255.743L248.374 256.384C250.218 256.66 252.056 257.306 252.426 257.582ZM231.619 258.874C231.343 260.066 231.067 261.358 231.067 261.728C231.067 262.186 229.499 262.368 227.661 262.186C224.895 262.004 224.067 261.452 223.885 259.884C223.609 258.321 224.161 257.858 226.187 257.488C231.895 256.66 232.265 256.754 231.619 258.874ZM261.265 257.764C263.015 257.764 263.385 258.228 263.103 259.79C262.921 261.54 262.187 262.004 259.421 262.186C257.489 262.368 255.926 262.186 255.926 261.728C255.926 261.358 255.65 259.978 255.28 258.78C254.822 256.754 254.911 256.66 256.937 257.124C258.135 257.488 260.067 257.764 261.265 257.764ZM220.291 260.16C219.65 262.004 216.244 263.29 212.098 263.29C209.244 263.29 208.968 263.108 209.89 261.54C210.812 259.702 212.744 259.056 217.9 258.78C220.291 258.686 220.754 258.962 220.291 260.16ZM276.364 260.806C277.562 262.738 277.192 263.29 274.431 263.29C270.473 263.29 266.973 261.728 266.973 259.978C266.973 258.686 267.619 258.504 271.301 259.056C273.692 259.332 275.905 260.16 276.364 260.806ZM208.046 260.9C208.046 262.644 204.551 264.212 200.864 264.118L196.541 264.03L201.145 262.368C205.744 260.618 208.046 260.16 208.046 260.9ZM285.02 262.004C290.083 263.754 292.109 265.04 288.885 264.582C281.52 263.566 279.952 263.108 279.494 261.91C278.848 260.16 279.4 260.16 285.02 262.004ZM145.442 265.775C142.588 269.462 136.692 273.233 131.26 274.889C126.843 276.275 106.676 277.931 107.692 276.827C109.442 274.983 141.848 263.754 146.635 263.384C147.098 263.29 146.546 264.394 145.442 265.775ZM351.676 266.514C357.848 268.353 366.687 271.394 371.379 273.233L379.76 276.639L373.775 276.915C363.28 277.379 350.296 274.061 345.234 269.551C342.931 267.436 339.338 263.29 339.895 263.29C340.26 263.29 345.51 264.764 351.676 266.514ZM210.536 281.061C196.817 308.405 181.9 329.212 163.76 346.431C142.124 367.056 120.859 376.905 106.77 372.853C101.062 371.196 100.14 369.91 100.786 364.936L101.431 360.426L106.77 360.702C122.145 361.624 142.676 350.113 163.395 329.124C178.124 314.207 191.291 296.16 203.536 274.155L208.51 265.222L213.114 264.946C215.598 264.764 217.9 264.764 218.083 264.946C218.359 265.04 214.952 272.316 210.536 281.061ZM223.702 271.301L224.806 278.483L221.583 285.847C217.437 295.608 211.452 307.394 207.036 314.665C205.01 317.889 203.442 320.743 203.442 320.837C203.442 321.019 201.145 324.608 198.291 328.847C182.083 352.691 163.025 371.196 144.52 381.051C137.062 385.009 125.463 388.509 119.661 388.509C114.504 388.509 107.598 386.113 103.822 382.983C100.879 380.499 100.327 379.483 100.327 376.535V372.946L104.098 374.238C119.291 379.665 142.588 369.999 164.958 349.009C185.03 330.134 203.166 303.525 217.53 271.759C219.463 267.618 221.306 264.212 221.765 264.212C222.228 264.212 223.056 267.436 223.702 271.301ZM228.577 268.077C227.015 272.775 225.541 274.613 225.541 271.853C225.541 270.842 225.265 268.629 224.989 267.066C224.437 264.394 224.53 264.212 227.197 264.212H229.963L228.577 268.077ZM235.025 272.775L236.499 279.957L233.645 287.504L230.697 295.056L229.041 288.15C228.213 284.374 227.473 280.415 227.385 279.405C227.385 276.733 232.171 264.03 232.905 264.858C233.275 265.222 234.197 268.816 235.025 272.775ZM239.442 269.827L237.973 275.446L236.864 271.946C235.025 265.775 235.301 264.212 238.249 264.212H240.916L239.442 269.827ZM246.072 272.316L248.28 279.769L246.072 287.415C244.874 291.556 243.77 295.15 243.588 295.238C243.4 295.426 242.296 291.926 241.01 287.504C238.984 280.233 238.801 279.035 239.905 275.722C240.546 273.696 241.562 270.196 242.114 267.988C242.666 265.868 243.312 264.212 243.494 264.394C243.77 264.582 244.874 268.17 246.072 272.316ZM251.322 265.775C251.322 267.801 249.478 274.613 249.02 274.155C248.926 274.061 248.098 271.67 247.364 268.999L245.89 264.212H248.65C250.583 264.212 251.322 264.67 251.322 265.775ZM257.765 272.681L259.885 278.853L258.228 286.863C256.291 295.884 256.015 295.79 252.333 284.65C250.676 279.769 250.494 278.301 251.322 274.983C251.874 272.868 252.796 269.462 253.348 267.436C254.359 263.29 254.635 263.566 257.765 272.681ZM261.999 266.238C261.723 267.436 261.447 269.275 261.447 270.379C261.447 273.785 260.161 272.868 258.504 268.353L256.937 264.212H259.791C262.275 264.212 262.551 264.488 261.999 266.238ZM267.984 268.54C271.208 276.181 280.786 294.78 285.661 302.879C300.119 326.91 319.27 348.827 336.484 361.16C343.853 366.316 357.385 373.04 363.833 374.603C369.817 375.983 378.379 375.894 382.89 374.238L386.754 372.853L386.478 376.723C386.202 380.035 385.65 381.051 382.338 383.535C376.812 387.769 369.905 389.15 361.619 387.769C347.624 385.374 332.161 376.535 316.968 362.358C296.989 343.577 279.218 317.431 266.051 287.228L262.275 278.483L263.385 271.301C263.937 267.436 264.853 264.212 265.317 264.212C265.775 264.212 266.973 266.144 267.984 268.54ZM279.588 266.79C280.692 269.738 289.437 285.019 294.504 292.754C314.572 323.321 336.947 345.233 359.228 355.821C366.963 359.598 373.958 361.16 380.681 360.702L385.562 360.426L386.202 364.936C386.848 369.91 385.926 371.196 380.218 372.853C365.395 377.092 342.838 366.134 320.28 343.483C302.234 325.436 289.348 306.931 276.088 280.321C272.129 272.222 268.812 265.41 268.812 265.134C268.812 264.858 271.114 264.858 273.968 264.946C277.655 265.222 279.218 265.686 279.588 266.79ZM201.51 273.144C182.635 307.577 157.223 336.394 133.01 350.571C121.869 357.113 107.322 360.795 103.181 358.217C102.077 357.478 102.077 356.556 102.994 351.957L104.192 346.525L109.806 345.509C132.275 341.181 166.338 310.801 189.817 274.155C194.515 266.884 195.155 266.42 201.879 266.144L205.379 266.051L201.51 273.144ZM289.806 266.608C292.109 267.066 293.671 268.722 298.463 275.999C309.968 293.582 325.619 311.811 339.984 324.426C352.416 335.29 369.077 344.499 378.744 345.785L382.796 346.337L383.9 351.957C385.192 358.769 384.64 359.321 376.999 358.769C370.921 358.306 361.53 354.9 353.333 350.113C330.041 336.488 303.431 306.196 284.926 272.222L281.52 266.051H284.28C285.754 266.051 288.239 266.327 289.806 266.608ZM190.093 269.462C169.103 302.238 144.426 327.374 121.869 338.603C116.53 341.275 106.036 344.863 105.39 344.129C105.208 343.946 106.124 340.629 107.504 336.764C109.624 330.41 110.176 329.488 112.848 328.66C120.765 325.993 136.603 314.665 150.874 301.41C157.041 295.702 173.338 276.915 176.744 271.67C177.848 270.014 179.598 269.275 184.572 268.353C188.161 267.712 191.197 267.16 191.385 267.066C191.567 267.066 190.921 268.077 190.093 269.462ZM307.853 269.462C308.405 269.644 311.812 273.603 315.312 278.207C331.791 299.66 357.848 321.941 373.588 328.202C377.275 329.764 377.551 330.04 379.666 336.853C380.864 340.722 381.692 344.035 381.51 344.129C380.958 344.863 370.275 341.181 364.661 338.327C352.14 331.978 336.484 319.363 324.333 305.733C314.484 294.686 296.437 270.472 296.437 268.264C296.437 267.712 306.01 268.629 307.853 269.462ZM173.984 271.207C173.984 274.337 143.046 306.472 132.734 313.931C126.015 318.811 112.109 327.004 111.556 326.358C111.28 326.176 113.124 321.847 115.515 316.874C118.556 310.431 120.583 307.301 122.515 306.196C128.041 302.972 139.734 293.124 149.4 283.639C159.249 273.972 159.437 273.879 165.973 272.316C173.89 270.566 173.984 270.566 173.984 271.207ZM321.385 272.592C327.187 273.696 327.463 273.879 338.327 284.467C348.176 293.952 364.661 307.483 366.411 307.483C367.145 307.483 375.89 325.9 375.431 326.452C374.697 327.097 360.515 318.535 353.609 313.191C344.036 305.92 333.541 295.79 324.15 284.926C314.666 274.155 311.718 270.014 314.114 270.842C314.942 271.207 318.254 271.946 321.385 272.592ZM147.28 282.259C140.65 288.978 124.077 303.066 123.525 302.42C122.791 301.775 131.353 289.071 135.129 285.113C140.562 279.493 147.556 275.535 152.343 275.353C153.635 275.259 152.254 277.103 147.28 282.259ZM343.114 278.207C345.234 279.129 349.286 282.441 351.952 285.389C356.739 290.545 364.291 301.686 363.463 302.42C362.911 303.066 345.234 287.874 338.786 281.243L332.801 275.077L336.025 275.722C337.775 276.087 340.999 277.191 343.114 278.207ZM70.5877 277.655C70.3117 277.931 69.4836 278.025 68.8377 277.749C68.1034 277.467 68.3794 277.191 69.3898 277.191C70.4002 277.103 70.9575 277.379 70.5877 277.655ZM418.614 277.655C418.338 277.931 417.51 278.025 416.864 277.749C416.124 277.467 416.405 277.191 417.416 277.191C418.426 277.103 418.978 277.379 418.614 277.655ZM426.9 278.577C426.624 278.853 425.796 278.941 425.15 278.665C424.411 278.389 424.687 278.113 425.702 278.113C426.713 278.025 427.265 278.301 426.9 278.577ZM66.5357 279.587C65.8898 279.769 64.7857 279.769 64.2336 279.587C63.5877 279.311 64.0513 279.129 65.3377 279.129C66.6294 279.129 67.0877 279.311 66.5357 279.587ZM422.848 279.587C422.202 279.769 421.098 279.769 420.546 279.587C419.9 279.311 420.364 279.129 421.65 279.129C422.942 279.129 423.4 279.311 422.848 279.587ZM72.0617 280.509C71.4159 280.691 70.3117 280.691 69.7596 280.509C69.1138 280.233 69.5721 280.045 70.8638 280.045C72.1502 280.045 72.6138 280.233 72.0617 280.509ZM417.322 280.509C416.681 280.691 415.572 280.691 415.02 280.509C414.379 280.233 414.838 280.045 416.124 280.045C417.416 280.045 417.874 280.233 417.322 280.509ZM85.869 281.431C84.2127 281.613 81.4523 281.613 79.8846 281.431C78.2284 281.243 79.52 281.061 82.8325 281.061C86.145 281.061 87.4367 281.243 85.869 281.431ZM407.197 281.431C405.541 281.613 402.775 281.613 401.213 281.431C399.556 281.243 400.843 281.061 404.155 281.061C407.473 281.061 408.76 281.243 407.197 281.431ZM425.333 281.707C424.598 282.165 422.942 282.535 421.65 282.535C419.536 282.441 419.536 282.347 422.114 281.707C426.072 280.691 426.9 280.691 425.333 281.707ZM66.5357 282.347C65.8898 282.535 64.7857 282.535 64.2336 282.347C63.5877 282.071 64.0513 281.889 65.3377 281.889C66.6294 281.889 67.0877 282.071 66.5357 282.347ZM70.5877 283.176C70.3117 283.457 69.4836 283.545 68.8377 283.269C68.1034 282.993 68.3794 282.717 69.3898 282.717C70.4002 282.624 70.9575 282.9 70.5877 283.176ZM76.1086 283.176C75.8325 283.457 75.0044 283.545 74.3638 283.269C73.6242 282.993 73.9002 282.717 74.9159 282.717C75.9263 282.624 76.4784 282.9 76.1086 283.176ZM272.681 306.103C299.015 357.202 339.614 392.374 369.629 390.071C376.353 389.613 379.76 388.509 384.27 385.374L386.942 383.535L386.296 386.295C385.286 390.165 381.51 394.769 376.723 397.806C371.291 401.306 367.327 402.316 359.963 402.316C326.911 402.316 284.926 361.347 260.067 304.816L257.489 298.832L259.056 291.926C259.973 288.056 260.895 284.285 261.083 283.545C261.359 282.811 262.921 285.389 264.765 289.53C266.515 293.582 270.01 301.04 272.681 306.103ZM413.088 283.176C412.812 283.457 411.984 283.545 411.338 283.269C410.603 282.993 410.879 282.717 411.89 282.717C412.905 282.624 413.458 282.9 413.088 283.176ZM418.614 283.176C418.338 283.457 417.51 283.545 416.864 283.269C416.124 282.993 416.405 282.717 417.416 282.717C418.426 282.624 418.978 282.9 418.614 283.176ZM83.1086 284.191C81.9107 284.374 80.0721 284.374 78.9627 284.191C77.77 284.009 78.6867 283.821 80.9888 283.821C83.2909 283.821 84.2127 284.009 83.1086 284.191ZM227.749 291.186L229.411 298.738L225.541 307.483C205.838 352.233 173.155 388.874 143.416 399.28C135.681 402.04 123.989 403.056 118.28 401.488C110.452 399.462 100.327 390.441 100.327 385.655C100.327 384.269 100.968 384.457 105.296 386.759C130.801 400.566 173.796 372.946 204.827 322.676C210.624 313.379 220.848 293.764 223.702 286.493C224.343 284.926 225.083 283.545 225.447 283.545C225.817 283.545 226.833 286.952 227.749 291.186ZM408.119 284.191C406.921 284.374 405.077 284.374 403.973 284.191C402.775 284.009 403.697 283.821 405.999 283.821C408.301 283.821 409.223 284.009 408.119 284.191ZM65.9836 285.019C65.7075 285.295 64.8794 285.389 64.2336 285.113C63.4992 284.837 63.7752 284.561 64.7857 284.561C65.8013 284.467 66.3534 284.743 65.9836 285.019ZM238.431 285.571C238.431 286.217 239.353 289.53 240.364 292.936L242.39 299.108L239.812 306.566C238.338 310.613 236.864 313.931 236.588 313.931C236.223 313.931 235.025 310.431 233.827 306.196L231.801 298.556L234.379 291.462C236.864 285.113 238.431 282.717 238.431 285.571ZM252.52 291.738L255.098 299.014L253.072 306.472C251.963 310.613 250.676 313.655 250.306 313.285C249.296 312.181 244.874 300.946 244.874 299.384C244.874 297.54 248.926 284.467 249.478 284.467C249.754 284.467 251.135 287.691 252.52 291.738ZM423.218 285.019C422.942 285.295 422.114 285.389 421.468 285.113C420.728 284.837 421.004 284.561 422.02 284.561C423.03 284.467 423.583 284.743 423.218 285.019ZM69.6659 285.941C69.3898 286.217 68.5617 286.311 67.9159 286.03C67.1815 285.754 67.4575 285.478 68.4679 285.478C69.4836 285.389 70.0357 285.665 69.6659 285.941ZM86.7909 286.493C86.2388 287.504 72.8898 287.415 72.3377 286.4C72.0617 286.03 75.2804 285.665 79.52 285.754C83.7544 285.754 87.0669 286.124 86.7909 286.493ZM414.655 286.4C414.103 287.415 400.749 287.504 400.197 286.493C399.921 286.124 403.239 285.754 407.473 285.754C411.708 285.665 414.931 286.03 414.655 286.4ZM419.536 285.941C419.26 286.217 418.426 286.311 417.786 286.03C417.046 285.754 417.322 285.478 418.338 285.478C419.348 285.389 419.9 285.665 419.536 285.941ZM98.7596 287.874C98.1138 288.056 97.0096 288.056 96.4575 287.874C95.8117 287.597 96.2752 287.415 97.5617 287.415C98.8534 287.415 99.3117 287.597 98.7596 287.874ZM390.624 287.874C389.978 288.056 388.874 288.056 388.322 287.874C387.676 287.597 388.14 287.415 389.426 287.415C390.713 287.415 391.176 287.597 390.624 287.874ZM94.7075 288.519C94.5252 288.702 92.7752 289.071 90.8429 289.441C88.3586 289.9 87.4367 289.806 87.895 289.165C88.1711 288.608 89.9211 288.15 91.7648 288.15C93.6034 288.15 94.895 288.332 94.7075 288.519ZM390.9 290.452C394.4 291.186 398.359 291.832 399.833 291.832C401.213 291.832 402.317 292.202 402.317 292.754C402.317 293.212 401.395 293.676 400.197 293.676C397.437 293.676 383.994 290.176 382.062 288.978C380.958 288.243 381.14 288.15 382.614 288.608C383.718 288.884 387.4 289.717 390.9 290.452ZM399.093 289.165C399.556 289.806 398.635 289.9 396.145 289.441C391.452 288.608 391.176 288.15 395.228 288.15C397.067 288.15 398.817 288.608 399.093 289.165ZM80.7127 289.717C78.8742 289.9 75.9263 289.9 74.27 289.717C72.7023 289.53 74.27 289.347 77.77 289.347C81.3586 289.347 82.6502 289.53 80.7127 289.717ZM102.905 289.624C102.077 290.358 89.1867 293.676 86.7909 293.676C83.4784 293.676 84.3065 291.832 87.7127 291.738C89.2752 291.738 92.9575 291.097 95.7232 290.452C101.708 289.071 103.546 288.884 102.905 289.624ZM412.166 289.717C410.327 289.9 407.379 289.9 405.723 289.717C404.155 289.53 405.723 289.347 409.223 289.347C412.812 289.347 414.103 289.53 412.166 289.717ZM81.9107 292.936C81.9107 293.858 78.2284 293.764 75.9263 292.754C74.5461 292.202 75.0982 292.019 77.9523 292.108C80.1607 292.202 81.9107 292.571 81.9107 292.936ZM411.062 292.754C408.76 293.764 405.077 293.858 405.077 292.936C405.077 292.571 406.827 292.202 409.036 292.108C411.89 292.019 412.442 292.202 411.062 292.754ZM99.8638 294.134C96.2752 296.988 85.5044 298.462 84.2127 296.436C83.8429 295.884 85.0409 295.514 87.1607 295.514C89.0929 295.514 92.7752 294.874 95.2596 294.228C101.244 292.571 102.077 292.571 99.8638 294.134ZM391.27 294.134C394.03 294.874 397.895 295.514 399.833 295.514C401.947 295.514 403.145 295.884 402.775 296.436C401.489 298.462 390.713 296.988 387.124 294.134C384.822 292.478 385.098 292.478 391.27 294.134ZM106.312 295.332C105.76 295.702 104.374 296.894 103.088 298.004C100.416 300.212 96.645 301.592 96.645 300.301C96.645 299.749 98.7596 298.28 101.431 296.988C106.312 294.592 107.874 294.04 106.312 295.332ZM389.244 298.832C390.437 299.66 391.176 300.488 390.9 300.764C389.978 301.686 386.202 300.025 382.984 297.264L379.76 294.41L383.442 295.978C385.468 296.806 388.14 298.092 389.244 298.832ZM390.348 315.035C390.254 315.681 388.968 314.577 387.306 312.551C385.744 310.525 381.968 306.196 378.931 302.879C375.89 299.566 377.275 300.67 381.874 305.368C386.572 310.061 390.348 314.389 390.348 315.035ZM107.14 303.988C104.192 307.207 100.603 311.259 99.2232 313.009C97.8377 314.759 96.7336 315.681 96.645 315.035C96.645 313.931 111.098 298.28 112.109 298.28C112.385 298.28 110.176 300.858 107.14 303.988ZM102.077 304.446C99.7752 306.931 97.0096 310.061 95.9054 311.535C94.7075 313.103 93.8794 313.655 93.8794 312.827C93.8794 309.785 102.718 300.394 105.848 300.118C106.036 300.118 104.374 302.051 102.077 304.446ZM390.072 307.394C391.728 309.509 393.109 311.999 393.109 312.733C393.109 313.655 392.374 313.191 391.083 311.535C389.978 310.061 387.218 306.842 384.916 304.353L380.681 299.842L383.9 301.592C385.65 302.603 388.416 305.181 390.072 307.394ZM231.343 326.821C227.661 334.738 224.895 339.983 219.187 350.207C216.885 354.165 208.692 366.504 206.296 369.446C189.265 390.624 174.624 403.144 158.327 410.785C151.609 413.92 148.02 414.931 140.562 416.129C125.369 418.519 110.546 411.342 103.822 398.264L101.984 394.676L105.76 397.624C116.9 406.462 135.218 406.551 152.619 397.9C178.676 385.009 204.275 355.728 223.056 317.519L230.603 302.327L232.999 310.155L235.301 318.071L231.343 326.821ZM246.536 325.712C243.312 334.368 243.312 334.368 239.812 324.243L237.692 318.165L239.994 312.087C241.286 308.775 242.572 305.368 242.848 304.353C243.124 303.155 244.234 304.999 246.348 310.337L249.478 317.983L246.536 325.712ZM264.025 317.795C287.135 364.29 318.624 395.874 349.098 403.332C351.588 403.884 357.385 404.16 362.447 403.973C372.119 403.608 375.984 402.223 382.15 397.071L385.192 394.493L382.89 398.634C377.827 407.931 368.801 414.285 357.848 416.129C352.78 417.051 350.478 416.957 344.129 415.665C325.067 411.801 306.103 399.28 288.609 378.931C286.124 375.983 283.452 372.946 282.718 372.212C275.994 365.212 252.244 323.228 252.244 318.441C252.244 316.874 256.015 302.879 256.478 302.879C256.567 302.879 259.973 309.603 264.025 317.795ZM104.838 311.165C103.181 313.191 101.708 314.853 101.431 314.853C100.968 314.853 102.536 312.639 105.296 309.509C108.338 306.103 107.968 307.207 104.838 311.165ZM382.15 309.972C383.348 311.441 383.26 311.535 381.874 310.337C380.312 309.144 379.853 308.405 380.588 308.405C380.77 308.405 381.51 309.144 382.15 309.972ZM97.9315 321.389C96.645 323.967 95.3534 325.9 95.0773 325.624C94.619 325.16 99.2232 316.691 99.9575 316.691C100.14 316.691 99.3117 318.811 97.9315 321.389ZM389.333 319.728C391.728 323.597 393.385 328.014 392.187 327.28C391.635 327.004 391.27 326.269 391.27 325.806C391.27 325.347 390.254 323.321 388.968 321.295C387.676 319.269 386.666 317.431 386.666 317.15C386.666 316.045 387.583 316.874 389.333 319.728ZM95.7232 318.347C95.7232 318.811 95.0773 319.915 94.2492 320.926C93.5148 321.847 92.9575 322.217 93.2336 321.754C93.4211 321.202 93.8794 320.097 94.1554 319.176C94.8013 317.613 95.7232 317.061 95.7232 318.347ZM393.478 321.295L394.124 323.597L392.739 321.295C391.176 318.717 390.806 316.691 392.098 318.071C392.556 318.624 393.202 320.004 393.478 321.295ZM102.166 320.374C101.614 321.389 100.968 322.217 100.692 322.217C100.51 322.217 100.692 321.389 101.244 320.374C101.796 319.363 102.442 318.535 102.718 318.535C102.905 318.535 102.718 319.363 102.166 320.374ZM256.843 334.186C263.661 347.993 265.041 350.389 272.223 361.254C295.885 396.884 325.806 418.243 352.14 418.337C361.806 418.431 367.791 416.681 374.786 411.801L379.484 408.577L377.827 411.525C374.697 416.775 367.145 423.493 360.978 426.441C355.728 428.926 353.609 429.478 346.062 429.754C335.473 430.212 328.754 428.743 317.796 423.493C297.911 414.009 278.39 395.41 262.827 371.014C258.228 363.738 246.348 341.551 245.426 338.238C245.062 337.04 245.978 333.264 247.822 328.566C249.39 324.332 250.952 321.478 251.135 322.217C251.411 322.952 253.9 328.384 256.843 334.186ZM238.89 328.202C239.812 330.686 240.916 333.17 241.379 333.634C242.848 335.384 242.02 337.775 235.671 350.483C221.213 379.389 201.786 403.056 181.348 416.587C166.155 426.624 154.833 430.306 140.838 429.754C133.379 429.478 131.26 428.926 126.103 426.53C119.385 423.217 114.046 418.613 109.718 412.17L106.676 407.842L111.833 411.431C119.385 416.681 124.999 418.431 134.853 418.337C167.536 418.243 204.364 386.113 229.317 335.936C231.801 331.056 234.197 325.9 234.749 324.426C235.947 321.389 236.775 322.124 238.89 328.202ZM98.7596 326.358C97.9315 328.108 97.1034 329.4 96.8273 329.212C96.4575 328.754 99.2232 323.139 99.8638 323.139C100.14 323.139 99.5877 324.608 98.7596 326.358ZM388.968 325.993C389.796 327.556 390.348 329.03 390.161 329.212C389.885 329.4 389.056 328.108 388.228 326.358C386.296 322.4 387.03 322.03 388.968 325.993ZM392.004 333.722C391.728 333.999 391.176 333.54 390.9 332.618C390.348 331.332 390.437 331.238 391.359 332.066C392.004 332.712 392.28 333.446 392.004 333.722ZM391.27 339.249C391.27 339.707 390.806 339.525 390.348 338.79C389.885 338.051 389.426 336.946 389.426 336.488C389.426 335.936 389.885 336.212 390.348 336.946C390.806 337.686 391.27 338.696 391.27 339.249ZM98.2075 353.702C97.9315 354.441 97.6554 354.165 97.6554 353.15C97.5617 352.139 97.8377 351.587 98.1138 351.957C98.3898 352.233 98.4836 353.061 98.2075 353.702ZM99.1294 362.91C98.8534 363.65 98.5773 363.374 98.5773 362.358C98.4836 361.348 98.7596 360.795 99.0357 361.16C99.3117 361.436 99.4054 362.264 99.1294 362.91ZM388.228 363.832C387.952 364.478 387.77 364.014 387.77 362.728C387.77 361.436 387.952 360.978 388.228 361.53C388.416 362.176 388.416 363.28 388.228 363.832ZM98.2075 373.957C97.9315 374.603 97.7492 374.144 97.7492 372.853C97.7492 371.566 97.9315 371.103 98.2075 371.66C98.3898 372.301 98.3898 373.405 98.2075 373.957ZM389.15 373.957C388.874 374.603 388.692 374.144 388.692 372.853C388.692 371.566 388.874 371.103 389.15 371.66C389.333 372.301 389.333 373.405 389.15 373.957Z"
        fill="white" />
</svg>