<svg width="596" height="630" viewBox="0 0 596 630" fill="none" xmlns="http://www.w3.org/2000/svg">
<path d="M68.3368 167.667V301M235.004 1V134.333M501.67 467.667V601M1.67016 234.333H135.003M168.337 67.6667H301.67M435.003 534.333H568.337M368.337 167.667L462.617 261.948M552.223 59.204L571.08 78.06C584.28 91.2607 590.88 97.861 593.353 105.472C595.53 112.167 595.53 119.378 593.353 126.073C590.88 133.684 584.28 140.284 571.08 153.485L119.186 605.38C105.986 618.58 99.3852 625.18 91.7742 627.653C85.0795 629.83 77.8678 629.83 71.1732 627.653C63.5622 625.18 56.9618 618.58 43.7615 605.38L24.9052 586.523C11.7045 573.323 5.10417 566.723 2.6315 559.11C0.456167 552.417 0.456167 545.207 2.6315 538.51C5.10417 530.9 11.7045 524.3 24.9052 511.1L476.8 59.204C490 46.0033 496.6 39.403 504.21 36.93C510.907 34.755 518.117 34.755 524.813 36.93C532.423 39.403 539.023 46.0033 552.223 59.204Z" stroke="black" stroke-linecap="round" stroke-linejoin="round"/>
</svg>
