<svg width="469" height="602" viewBox="0 0 469 602" fill="none" xmlns="http://www.w3.org/2000/svg">
<path d="M101 67.6683C68.055 67.694 50.7863 68.1127 37.4007 74.933C24.8563 81.3243 14.6577 91.523 8.26633 104.067C0.999998 118.328 1 136.996 1 174.333V494.333C1 531.67 0.999998 550.34 8.26633 564.6C14.6577 577.143 24.8563 587.343 37.4007 593.733C51.6613 601 70.3297 601 107.667 601H361C398.337 601 417.007 601 431.267 593.733C443.81 587.343 454.01 577.143 460.4 564.6C467.667 550.34 467.667 531.67 467.667 494.333V174.333C467.667 136.996 467.667 118.328 460.4 104.067C454.01 91.523 443.81 81.3243 431.267 74.933C417.88 68.1127 400.613 67.694 367.667 67.6683M101 67.6683V134.333H367.667V67.6683M101 67.6683V57.9037C101 42.8117 106.995 28.338 117.667 17.6667C128.338 6.99533 142.812 1 157.904 1H310.763C325.853 1 340.33 6.99533 351 17.6667C361.67 28.338 367.667 42.8117 367.667 57.9037V67.6683M334.333 301H234.333M334.333 434.333H234.333M134.333 301H134.667M134.333 434.333H134.667" stroke="black" stroke-linecap="round" stroke-linejoin="round"/>
</svg>
