<svg width="669" height="463" viewBox="0 0 669 463" fill="none" xmlns="http://www.w3.org/2000/svg">
<path d="M667.667 95.2732H601M601 95.2732H567.667C501 28.6659 401 -38.0671 334.333 28.6065M601 95.2732V361.938M334.333 28.6065L234.319 128.661C231.673 131.307 230.351 132.63 229.286 133.802C206.166 159.238 206.176 198.082 229.309 223.508C230.374 224.678 231.699 226.001 234.344 228.645C236.989 231.288 238.312 232.612 239.483 233.675C264.914 256.785 303.747 256.782 329.17 233.662C330.34 232.598 331.663 231.275 334.307 228.632L367.653 195.285M334.333 28.6065C267.667 -38.0671 167.667 28.6682 101 95.2752H67.6667M601 361.938V461.938H667.667M601 361.938H506.72M67.6667 95.2752H1M67.6667 95.2752V361.938M67.6667 361.938H134.333L147.066 387.405C164.188 421.648 211.362 425.902 234.333 395.272C252.508 413.448 261.596 422.535 271.4 427.395C290.05 436.635 311.95 436.635 330.6 427.395C340.403 422.535 349.493 413.448 367.667 395.272L384.333 411.938C386.987 414.592 388.317 415.922 389.49 416.992C414.92 440.105 453.747 440.105 479.177 416.992C480.35 415.922 481.68 414.592 484.333 411.938C486.987 409.285 488.317 407.958 489.383 406.781C512.497 381.355 512.497 342.525 489.383 317.098C488.317 315.922 486.987 314.595 484.333 311.938L434.333 261.938M67.6667 361.938V461.938H1" stroke="black" stroke-linecap="round" stroke-linejoin="round"/>
</svg>
