<svg width="602" height="602" viewBox="0 0 602 602" fill="none" xmlns="http://www.w3.org/2000/svg">
<path d="M1 301H601M301 167.667V301M117.667 301V434.333M484.333 301V434.333M237.667 167.667H364.333C383.003 167.667 392.337 167.667 399.467 164.034C405.74 160.838 410.837 155.738 414.033 149.466C417.667 142.336 417.667 133.002 417.667 114.333V54.3333C417.667 35.665 417.667 26.3307 414.033 19.2003C410.837 12.9283 405.74 7.829 399.467 4.633C392.337 0.999999 383.003 1 364.333 1H237.667C218.998 1 209.664 0.999999 202.534 4.633C196.262 7.829 191.162 12.9283 187.966 19.2003C184.333 26.3307 184.333 35.665 184.333 54.3333V114.333C184.333 133.002 184.333 142.336 187.966 149.466C191.162 155.738 196.262 160.838 202.534 164.034C209.664 167.667 218.998 167.667 237.667 167.667ZM421 601H547.667C566.337 601 575.67 601 582.8 597.367C589.073 594.17 594.17 589.073 597.367 582.8C601 575.67 601 566.337 601 547.667V487.667C601 468.997 601 459.663 597.367 452.533C594.17 446.26 589.073 441.163 582.8 437.967C575.67 434.333 566.337 434.333 547.667 434.333H421C402.33 434.333 392.997 434.333 385.867 437.967C379.593 441.163 374.497 446.26 371.3 452.533C367.667 459.663 367.667 468.997 367.667 487.667V547.667C367.667 566.337 367.667 575.67 371.3 582.8C374.497 589.073 379.593 594.17 385.867 597.367C392.997 601 402.33 601 421 601ZM54.3333 601H181C199.668 601 209.003 601 216.133 597.367C222.405 594.17 227.504 589.073 230.7 582.8C234.333 575.67 234.333 566.337 234.333 547.667V487.667C234.333 468.997 234.333 459.663 230.7 452.533C227.504 446.26 222.405 441.163 216.133 437.967C209.003 434.333 199.668 434.333 181 434.333H54.3333C35.665 434.333 26.3307 434.333 19.2003 437.967C12.9283 441.163 7.829 446.26 4.633 452.533C0.999999 459.663 1 468.997 1 487.667V547.667C1 566.337 0.999999 575.67 4.633 582.8C7.829 589.073 12.9283 594.17 19.2003 597.367C26.3307 601 35.665 601 54.3333 601Z" stroke="black" stroke-linecap="round" stroke-linejoin="round"/>
</svg>
