<svg width="1644" height="1282" viewBox="0 0 1644 1282" fill="none" xmlns="http://www.w3.org/2000/svg">
<mask id="path-1-inside-1_235_134" fill="white">
<path d="M1270 939C1270 848.031 1222.8 760.787 1138.78 696.462C1054.77 632.137 940.817 596 822 596C703.183 596 589.233 632.137 505.216 696.462C421.2 760.787 374 848.031 374 939L822 939H1270Z"/>
</mask>
<path d="M1270 939C1270 848.031 1222.8 760.787 1138.78 696.462C1054.77 632.137 940.817 596 822 596C703.183 596 589.233 632.137 505.216 696.462C421.2 760.787 374 848.031 374 939L822 939H1270Z" stroke="black" stroke-width="2" mask="url(#path-1-inside-1_235_134)"/>
<path d="M109.846 736.311C179.887 682.657 274.905 652.5 374 652.5C441.615 652.5 507.336 666.54 564.519 692.508C511.712 731.526 473.527 763.377 447.27 800.203C420.956 837.11 406.645 878.981 401.541 938H374L0.50057 938C0.673033 862.378 39.9623 789.845 109.846 736.311Z" stroke="black"/>
<path d="M1534.15 736.311C1604.04 789.845 1643.33 862.378 1643.5 938H1270H1243.94C1235.94 875.192 1220.51 831.751 1194.36 794.915C1168.28 758.177 1131.56 728.046 1081 691.823C1137.82 666.294 1202.98 652.5 1270 652.5C1369.1 652.5 1464.11 682.657 1534.15 736.311Z" stroke="black"/>
<circle cx="821.5" cy="260.5" r="260" stroke="black"/>
<circle cx="374" cy="399" r="171.5" stroke="black"/>
<circle cx="1269" cy="399" r="171.5" stroke="black"/>
</svg>
